<?xml version="1.0" encoding="utf-8"?>
<!-- Generator: Adobe Illustrator 17.1.0, SVG Export Plug-In . SVG Version: 6.00 Build 0)  -->
<!DOCTYPE svg PUBLIC "-//W3C//DTD SVG 1.1//EN" "http://www.w3.org/Graphics/SVG/1.1/DTD/svg11.dtd">
<svg version="1.1" id="Layer_1" xmlns="http://www.w3.org/2000/svg" xmlns:xlink="http://www.w3.org/1999/xlink" x="0px" y="0px"
	 viewBox="0 0 300 300" enable-background="new 0 0 300 300" xml:space="preserve">
<g>
	<path fill="#0081AC" d="M150.8,11.2c-63.1,0-116.4,41.4-134.4,98.6c0.1,0,0.2,0.1,0.3,0.1c0.2,0.9-0.3,1.4-0.9,1.7
		C12.1,124.4,10,138,10,152c0,2.3,0.1,4.5,0.2,6.8c0.4-0.2,1.3,0,1.4,0.4c0,0.8-0.9,0.5-1.4,0.2c3.8,74.4,65.3,133.5,140.6,133.5
		c77.8,0,140.8-63,140.8-140.8S228.6,11.2,150.8,11.2z M14.4,165.5C15.2,164.9,13.9,166.2,14.4,165.5L14.4,165.5z M14.7,178.8
		c0.4-0.1,0.4,0.2,0.7,0.2C15.5,179.5,14.3,179.4,14.7,178.8z M139.4,21.4c-0.6,0.2-0.9-0.6-1.4-1.1c0.3,0,0.6,0,0.9,0
		C138.9,20.8,139.1,21.2,139.4,21.4z M139,20c-0.3-0.2-0.8-0.3-0.7-0.9C138.9,19.1,139,19.4,139,20z M138,18.5
		c-0.2,0.7-0.1,1.7-0.5,2.3c0,0.6,0.4,1,1.2,0.9c0.1,0.7-0.5,0.7-0.5,1.4C135.5,23.6,135.2,16.4,138,18.5z M129.9,27
		c0,0.2,0,0.5,0,0.7c-0.5,0-0.8-0.2-0.7-0.7C129.5,27,129.7,27,129.9,27z M129.7,34.7c-0.2,0-0.3,0-0.5,0c0-0.2-0.1-0.2-0.2-0.2
		C128.9,34.1,130.1,34.2,129.7,34.7z M125,112.2c-0.7,1-1.2,2.1-0.7,3.6C120.7,115.7,122,109.6,125,112.2z M120,146.1
		C120,145.4,121,146.3,120,146.1L120,146.1z M120,53.7c-0.5,0-0.8-0.2-0.7-0.7c0.2,0,0.5,0,0.7,0C120,53.2,120,53.5,120,53.7z
		 M115.2,162.8c-0.7-0.9,0.5-1.8,1.4-1.1C116.3,162.1,116.2,162.8,115.2,162.8z M116.2,163.4C116.5,162.7,116.8,164.3,116.2,163.4
		L116.2,163.4z M114.8,159.2c-0.9,0.1-1.2-0.8-0.7-1.4C115.4,157.8,115.2,158.4,114.8,159.2z M114.5,173.4
		C114.6,172.7,115.5,173.6,114.5,173.4L114.5,173.4z M113.8,177.7c-0.2-0.2-0.9-0.1-0.7-0.7C113.7,176.9,114,177.1,113.8,177.7z
		 M115.2,77.6c-0.6,0.1-0.9-0.1-0.7-0.7C115,76.9,115.3,77.1,115.2,77.6z M113.3,61.8c0.3-0.3,1.1-0.3,1.4,0
		c-0.2,0.3-0.4,0.7-0.7,0.9C113.4,62.8,113.3,62.4,113.3,61.8z M112.9,62.7c0.8-0.1,0.7,0.7,0.7,1.4c-0.3,0-0.6,0-0.9,0
		C112.5,63.4,113,63.4,112.9,62.7z M111.9,156.4C112,155.8,112.9,156.7,111.9,156.4L111.9,156.4z M109.8,114.9
		c-0.3,0.6-0.4,1.4-1.2,1.6C108.1,115.4,108.7,114.4,109.8,114.9z M108.1,171.6C108.2,170.9,109.1,171.8,108.1,171.6L108.1,171.6z
		 M109.5,25.2c-0.1,0.8-1.5,1.2-2.1,0.7C107.7,25.2,108.5,25.2,109.5,25.2z M106.2,63.2c0.5-0.1,0.7,0,0.7,0.5c-0.2,0-0.5,0-0.7,0
		C106.2,63.5,106.2,63.3,106.2,63.2z M106.9,180.2c-0.1,0.3-0.3,0.5-0.7,0.5C106.1,180.1,106.6,180.2,106.9,180.2z M104.1,108.1
		c0.1,0.3-0.9,0.6-0.2,0.7c-0.5,0.8-0.7-0.6-0.9-0.7C103,107.6,103.9,108,104.1,108.1z M101.7,72.2c0.6,0.7-0.1,1.6,0,2.5
		c-1.7,0.1-1.2-2.1-0.7-2.5C101.2,72.2,101.5,72.2,101.7,72.2z M100.1,37.7c0.4-0.1,0.4,0.2,0.7,0.2
		C100.9,38.3,99.7,38.2,100.1,37.7z M99.8,68.8c-0.6,0-0.9-0.3-0.9-0.9C99.6,67.8,99.9,68.1,99.8,68.8z M99.1,52.1
		C98.5,51.4,99.8,52.7,99.1,52.1L99.1,52.1z M99.6,22.5c-0.5,0.4-0.3,0-0.9,0C98.4,21.7,99.8,21.7,99.6,22.5z M97.2,54.6
		c0.5-0.1,0.7,0,0.7,0.5c-0.2,0-0.5,0-0.7,0C97.2,54.9,97.2,54.7,97.2,54.6z M97,58.4c-0.2,1.2-1.3,1.6-2.6,1.8
		C93.3,58.4,95.7,57.3,97,58.4z M97,114.9c-0.6,0.1-0.9-0.1-0.7-0.7C96.8,114.2,97,114.4,97,114.9z M94.1,125.5
		c-2.2,0.2-1.1-3.9,0.7-2.5C94.9,124.2,93.9,124.3,94.1,125.5z M94.1,39.2c0.3,0.2,0.9,0.2,0.7,0.9c-0.3,0-0.6,0-0.9,0
		C93.8,39.7,94.1,39.5,94.1,39.2z M93.7,110.1C94.1,109.3,94.4,110.9,93.7,110.1L93.7,110.1z M92.5,53.5
		C91.6,54.3,91.3,52.6,92.5,53.5L92.5,53.5z M93.7,75.4C93.2,75.9,92,76.7,91,76C91.1,74.9,92.8,74.6,93.7,75.4z M92.5,107.4
		c0,0.2,0,0.3,0,0.5c-0.2,0-0.3,0-0.5,0c0-0.2,0-0.3,0-0.5C92.2,107.4,92.3,107.4,92.5,107.4z M82,212.2c-0.9,0.1-1.1-0.5-1.2-1.1
		C81.7,211.1,82.2,211.3,82,212.2z M81.6,173.8c-0.4,0.5-1.3,2-0.2,2.5C79.9,177.3,78.9,173.1,81.6,173.8z M79.7,35.6
		c-0.6,0.1-1-0.1-0.9-0.7C79.3,34.9,79.7,35,79.7,35.6z M77.3,59.8c-0.4,0-0.5-0.3-0.9-0.2C76.3,58.2,78.2,58.7,77.3,59.8z
		 M71.6,69.3c-0.8,0.2-0.7-0.4-1.2-0.5C70.6,68.3,71.9,68.6,71.6,69.3z M66.9,40.6c0.6-0.4,1.3-0.3,1.4,0.5
		C68.5,42.8,65.3,41.6,66.9,40.6z M68.3,149.4C67.7,150.2,67.3,148.7,68.3,149.4L68.3,149.4z M67.6,171.6
		C67.6,170.9,68.6,171.8,67.6,171.6L67.6,171.6z M63.5,86c0.2,0,0.3,0,0.5,0c0,0.1,0,0.3,0,0.5c-0.2,0-0.3,0-0.5,0
		C63.5,86.3,63.5,86.1,63.5,86z M55,183.5C55.3,182.8,55.6,184.4,55,183.5L55,183.5z M52.6,187.6c0,0.2,0.1,0.2,0.2,0.2
		c0,0.2,0,0.3,0,0.5c-0.2,0-0.2,0.1-0.2,0.2c-0.2,0-0.3,0-0.5,0c0-0.2-0.1-0.2-0.2-0.2c0-0.2,0-0.3,0-0.5c0.2,0,0.2-0.1,0.2-0.2
		C52.3,187.6,52.5,187.6,52.6,187.6z M51.7,122.3C51.7,121.7,52.7,122.6,51.7,122.3L51.7,122.3z M51.4,159.8c1.2-1.2-0.5,1.6,0,0.2
		C51.5,160,51.4,159.9,51.4,159.8z M48.4,91.2c0.5,0,0.8,0.2,0.7,0.7C48.5,92,48.2,91.8,48.4,91.2z M43.6,68.8
		C43.7,68.1,44.6,69,43.6,68.8L43.6,68.8z M42.4,125.1c0.4,0,0.9-0.1,0.9,0.2C43.6,126.1,41.9,125.9,42.4,125.1z M33.9,117.4
		c0.1,1.2-0.8,1.5-0.5,2.9C30.6,120.7,31.2,115.9,33.9,117.4z M32.5,88c0,0.6-0.8,0.1-0.9,0C31.6,87.5,32.3,88,32.5,88z M32,96.1
		c-0.6,0.1-1-0.1-0.9-0.7C31.5,95.1,32,95.5,32,96.1z M23.5,105.9c0,0.2,0,0.5,0,0.7c-0.5,0-0.8-0.2-0.7-0.7
		C23,105.9,23.2,105.9,23.5,105.9z M21.6,198.2c0.5-0.1,0.6,0.2,0.9,0.2C22.5,199.1,21.4,199,21.6,198.2z M20.8,163.2
		c0-1.2,1.3-1.1,2.4-1.4c-0.2,0.9,0.1,0.8,0.7,1.8C22.6,163.3,22.2,162.5,20.8,163.2z M26.3,125.5c-0.7,0-1.2-0.7-0.7-1.1
		C26.3,124.3,26.3,124.9,26.3,125.5z M27.3,117.6c0.2,0,0.5,0,0.7,0c0,0.2,0,0.5,0,0.7C27.4,118.3,27.2,118.1,27.3,117.6z
		 M27.7,176.3C28.3,175.4,28.1,177.1,27.7,176.3L27.7,176.3z M28.2,114.9c0.6-0.3,0.7-0.5,1.4-0.2c0.4,0.8-1,1-0.2,1.4
		C29,116.5,28.1,115.6,28.2,114.9z M28.9,153.3c-0.1-0.7,0.6-1.2,1.2-0.7C30,153.1,29.7,153.5,28.9,153.3z M31,167.5
		c-2.2,0.2-1.4-3.4,0.2-2.5C31.3,166.3,30.6,166.5,31,167.5z M33.2,189c-0.3-0.1-0.4-0.4-0.7-0.5c0-0.3,0.4-0.2,0.7-0.2
		C33.2,188.5,33.2,188.7,33.2,189z M33.2,161.9C34.3,162,33,163.2,33.2,161.9L33.2,161.9z M32.9,160.5c-1.1-0.8-1.2,0.2-2.4,0.5
		c0-1.4,1.3-4.6,3.8-3.6C33.5,158.1,32.8,159.4,32.9,160.5z M34.4,174.7c0.5-0.1,0.5,0.3,0.5,0.7C34.5,175.3,34.4,175.1,34.4,174.7z
		 M34.1,109.5c0.3,0,0.6,0,0.9,0C35.4,110.6,33.8,110.6,34.1,109.5z M35.8,147c-0.5,0-0.8-0.2-0.7-0.7c0.2,0,0.5,0,0.7,0
		C35.8,146.5,35.8,146.7,35.8,147z M37.2,208.6c-0.6,0.1-0.9-0.1-0.7-0.7c0.2,0,0.5,0,0.7,0C37.2,208.2,37.2,208.4,37.2,208.6z
		 M37,172.5c-0.7,0-1-0.4-0.9-1.1c0.6,0.1,0.5-0.4,1.2-0.2C37.8,171.7,36.7,171.6,37,172.5z M38.6,98C36.9,98.8,38,96.1,38.6,98
		L38.6,98z M40.1,213.4C40.4,212.6,40.6,214.2,40.1,213.4L40.1,213.4z M41.5,144.5c1-0.3,2.4-1.2,3.6-0.7
		C45.6,146.4,41.4,147.3,41.5,144.5z M42.7,157.6c0.2-0.2,0.5-0.2,0.9-0.2c0.1,0.7-0.3,1.1-0.9,1.1C43.1,158,42.6,158.2,42.7,157.6z
		 M43.1,163.2c0.1-1,0.6-1.5,1.7-1.6c-0.1,0.8-0.6,1.4-0.9,2C43.3,163.8,43.5,163.2,43.1,163.2z M44.6,180.4
		c-0.4-0.1-0.5-0.4-0.5-0.9C44.8,179.3,44.5,180,44.6,180.4z M46.2,220.8c-0.4,0-0.8,0-1.2,0c-0.3-0.3-0.3-1.3,0-1.6
		c0.3,0,0.6,0,0.9,0C46.1,219.8,46.4,220.1,46.2,220.8z M48.8,203.2c-0.5,0-0.8-0.2-0.7-0.7c0.2,0,0.5,0,0.7,0
		C48.8,202.7,48.8,203,48.8,203.2z M48.6,181.1c0-0.6,0.9-0.5,1.2-0.2c-0.1,0.2-0.2,0.4-0.2,0.7C48.9,181.7,49.1,181.1,48.6,181.1z
		 M49.8,202.7c-0.2,0-0.3,0-0.5,0c0-0.2,0-0.5,0-0.7c0.4-0.1,0.4,0.2,0.7,0.2C50,202.5,49.8,202.5,49.8,202.7z M49.8,89.8
		c0-0.1,0-0.3,0-0.5C50.6,89.4,50.5,90.3,49.8,89.8z M51,182.9C52,183.1,51,184.1,51,182.9L51,182.9z M52.9,194.4
		c-3.5,0.3-0.9-4.3,0.5-1.6C52.2,192.9,53.6,193.1,52.9,194.4z M53.8,186c-0.2-0.1-0.4-0.2-0.7-0.2c0-0.2,0.2-0.2,0.2-0.5
		c0.2,0,0.3,0,0.5,0C53.8,185.6,53.8,185.8,53.8,186z M52.9,79.4c0-0.5,0.6-0.5,1.2-0.5C54.1,80,53.2,79.9,52.9,79.4z M54.5,185.8
		c0-0.3,0-0.6,0-0.9c0.5-0.1,0.6,0.2,0.9,0.2C55.3,185.5,55.3,186,54.5,185.8z M56.9,161.2c-0.6,0.1-1-0.1-0.9-0.7
		c0.2,0,0.2-0.1,0.2-0.2C56.8,160.2,57,160.6,56.9,161.2z M56.9,125.7c0.9-0.2,0.8,1,0.5,1.4C56.8,127,56.4,126.2,56.9,125.7z
		 M58.3,218.6c-0.6,0.1-0.9-0.1-0.7-0.7c0.2,0,0.5,0,0.7,0C58.3,218.1,58.3,218.3,58.3,218.6z M58.1,87.3
		C58.1,86.7,59.1,87.6,58.1,87.3L58.1,87.3z M60.7,129.3C60.1,130.1,59.7,128.6,60.7,129.3L60.7,129.3z M60.7,49.8
		c0.3-0.3,0.9-0.3,1.2,0C61.7,50.5,60.8,50.8,60.7,49.8z M60.9,172.9c0.3-0.5,1-1.3,1.7-0.7C62.4,172.8,61.7,173.6,60.9,172.9z
		 M62.4,179.3c0-0.2,0-0.3,0-0.5c0.5-0.1,0.7,0,0.7,0.5C62.8,179.3,62.6,179.3,62.4,179.3z M63.5,201.6
		C63.6,200.9,64.5,201.8,63.5,201.6L63.5,201.6z M64,123.2C64.4,122.4,64.8,124,64,123.2L64,123.2z M65.2,214.5
		c-1.2,0.2-0.4-1.2,0-0.5C65.2,214.2,65.2,214.3,65.2,214.5z M65,159.2c0.5,0.1,1.1,0.1,0.9,0.9C65.2,160.2,64.8,159.9,65,159.2z
		 M65.4,71.1c-0.2-1.3,1.7-1.8,2.4-0.9C67.8,71.4,66.1,71.7,65.4,71.1z M66.6,195.3c0.5-0.1,0.9,0,1.2,0.2
		C67.8,196.2,66.4,196.1,66.6,195.3z M67.6,193.5c-0.1-0.5,0.2-0.6,0.2-0.9C68.5,192.6,68.4,193.7,67.6,193.5z M68.8,198.9
		c-0.8-0.1-1-0.5-0.7-1.1C68.9,197.9,69,198.2,68.8,198.9z M69.5,135c0.4-0.1,0.4,0.2,0.7,0.2C70.3,135.7,69.1,135.5,69.5,135z
		 M70.4,181.5c-1.9-0.5,0.3-1.2-0.2-2.9c0.5-0.1,1.4-0.4,1.9,0C70.9,179,71.3,180.9,70.4,181.5z M71.4,156.7
		c-0.7,0.2-0.6-0.3-1.2-0.2c-0.4-1.3,1.1-1.7,1.9-1.1C71.9,155.9,71.2,155.8,71.4,156.7z M74,104.7c-0.7,0.1-0.9-0.3-1.4-0.5
		c-0.2-0.7,0.2-0.8,0.2-1.4c0.6,0,1.1,0,1.7,0C75.1,103.9,73.8,103.6,74,104.7z M75.6,46.9c-0.3,0-0.6,0-0.9,0
		C74.5,46,75.8,46,75.6,46.9z M74.9,137.5c0.5-0.4,0.3,0,0.9,0C76.1,138.3,74.7,138.3,74.9,137.5z M75.9,185.8
		c-0.8-0.1-0.8-2.3,0.5-1.8C76.5,184.9,75.6,184.8,75.9,185.8z M76.3,107C75.7,106.3,77.1,107.6,76.3,107L76.3,107z M76.6,140.9
		C77.3,140,77.4,141.5,76.6,140.9L76.6,140.9z M77.1,79.7c-1.9-0.2-1.2-1.3-0.5-2.3c0.7,0.2,1.7,0.2,1.7,1.1
		C77.4,78.5,77.3,79.1,77.1,79.7z M78.2,109.5c0.2,0.1,0.4,0.2,0.7,0.2c0.1,1-0.4,1.5-1.2,1.1C77.6,110,78,109.9,78.2,109.5z
		 M80.6,158.7c0.2,1.4-1.5,1.7-0.7,2.9C76.7,161.8,77.8,157.4,80.6,158.7z M78.7,209.7c1,0.3,1,1.3,0.5,2c-0.4-0.1-0.6-0.3-1-0.5
		C78.4,210.8,78.5,210.2,78.7,209.7z M81.8,237.1c-1.8,1-1.4,2.5,0.2,3.4C78.9,240.4,77.5,236.1,81.8,237.1z M81.1,226
		c0.1,1-0.2,2.8,1.4,2.9C80.8,230.2,78.4,226.2,81.1,226z M82.5,94.3c0.1-1.6,2.4-0.6,1.2,0.5C82.9,95,83,94.4,82.5,94.3z
		 M83.7,184.9c0.6,0.1,0.5-0.4,1.2-0.2C85,185.9,83.7,186.1,83.7,184.9z M85.6,127.1c0.7-0.2,0.9,0.2,1.4,0.2
		c-0.3,0.6-0.4,1.4-1.4,1.4C85.3,128.4,85.3,127.4,85.6,127.1z M86.8,137.9c-0.6-0.3-1.4-0.5-1.2-1.6c0.5-0.1,1.2-0.4,1.7,0
		C86.9,137.1,86.9,137.3,86.8,137.9z M88.2,233.5c0-0.2,0-0.3,0-0.5c0.5-0.1,0.7,0,0.7,0.5C88.7,233.5,88.4,233.5,88.2,233.5z
		 M89.4,150.3C89.8,149.5,90.1,151.1,89.4,150.3L89.4,150.3z M92,111.5c-0.1,0.6-1.9,0.9-0.9,1.8C88.7,114.3,89.6,109.8,92,111.5z
		 M90.6,184.7c0.4-0.1,0.4,0.2,0.7,0.2C91.4,185.3,90.2,185.2,90.6,184.7z M91.3,162.8c-1.5,0.1-0.8-1.9,0.2-1.1
		C91.7,162.3,91.2,162.2,91.3,162.8z M94.4,245.7c0.3,0.1,0.5,0.3,0.5,0.7C94.2,246.4,94,246,94.4,245.7z M93.7,188.3
		c-0.1-0.4,1.3-0.4,0.9,0.2C94.1,188.6,94,188.4,93.7,188.3z M93.7,170.4c-4.8,0.4,0.2-5.3,1.2-0.7C93.5,169,93.9,170.4,93.7,170.4z
		 M93.4,156.4c0.4-0.6,1.4-0.6,1.4-1.6c0.3-0.3,1.1-0.3,1.4,0C96.2,156.1,94.6,157,93.4,156.4z M95.8,233c0.3,0,0.6,0,0.9,0
		c-1,1.1,0.5,1.9,0.5,3.4C95.5,236.2,96.1,233.9,95.8,233z M97.2,193.7C97.2,193.7,97.2,193.7,97.2,193.7c0.1,0,0.1,0,0.2-0.1
		C97.3,193.7,97.2,193.7,97.2,193.7z M97.9,227.1c-0.3-0.4,0.1-1.4,0.2-2c0.9,0,0.7,0.3,1.4,0C98.6,225.3,99.3,227.3,97.9,227.1z
		 M100.5,199.4c-2.2,0.1-1.3-2.9,0.5-1.8C100.7,198,100.4,198.5,100.5,199.4z M101.5,190.8c0.1-0.5,0.6-0.5,0.9-0.2
		C102.4,191.1,101.8,191.1,101.5,190.8z M102.4,182c-0.2,0-0.3,0-0.5,0c0-0.2,0-0.3,0-0.5c0.2,0,0.3,0,0.5,0
		C102.4,181.7,102.4,181.8,102.4,182z M101,90.3c0.1-0.9,0.7-1,1.4-0.7C102.5,90.4,101.6,90.8,101,90.3z M102.7,170.9
		c0.3-0.2,0.6-0.3,1.2-0.2c-0.1,0.5-0.6,0.6-0.5,1.4C103,171.8,102.6,171.6,102.7,170.9z M104.3,173.8c-0.3,0.3,0,1.2-0.9,0.9
		C103.3,174,103.6,173.7,104.3,173.8z M104.1,253.8C104.4,253,104.7,254.7,104.1,253.8L104.1,253.8z M103.6,179.5
		c0-0.8,0.3-0.6,0.9-0.5C104.5,179.9,104.2,179.6,103.6,179.5z M104.8,204.1c0.4-0.1,0.4,0.2,0.7,0.2
		C105.6,204.8,104.4,204.7,104.8,204.1z M105.3,103.4c-0.4,0-0.8,0-1.2,0c0.2-0.8-0.4-1.2,0-1.6c0.6,0,1.1,0,1.4,0.2
		C105.5,102.6,105.1,102.7,105.3,103.4z M104.3,56.2c0.5-0.1,0.9,0,1.2,0.2C105.6,57,103.9,57.2,104.3,56.2z M105,53
		c0.4-0.1,0.4,0.2,0.7,0.2C105.8,53.7,104.7,53.6,105,53z M106.7,226.9C107,226.2,107.3,227.8,106.7,226.9L106.7,226.9z
		 M106.2,187.2c0.7,0,1.3,0,1.2,0.7C107,188.2,106,188,106.2,187.2z M107.4,161.4c0.4-0.1,0.4,0.2,0.7,0.2
		C108.2,162.1,107,162,107.4,161.4z M108.6,197.8c-0.2,0-0.3,0-0.5,0c0-0.2,0-0.3,0-0.5c0.2,0,0.3,0,0.5,0
		C108.6,197.5,108.6,197.6,108.6,197.8z M108.6,181.7c-0.3-0.2-0.9-0.2-0.7-0.9c0.3,0,0.6,0,0.9,0
		C108.9,181.3,108.7,181.4,108.6,181.7z M108.1,179.3c0-0.6,0.8-0.1,0.9,0C109,179.8,108.3,179.3,108.1,179.3z M109.5,186.5
		c0.3,0,0.6,0,0.9,0C110.7,187.4,109.4,187.4,109.5,186.5z M111.9,168.2c0.5,0,0.8,0.2,0.7,0.7C112,169,111.8,168.8,111.9,168.2z
		 M112.6,184c-0.2,0-0.3,0-0.5,0c0-0.2-0.1-0.2-0.2-0.2C111.8,183.3,113,183.4,112.6,184z M112.9,180.6c-0.7,0.3-0.6-0.4-0.9-0.5
		c0.1-0.3,0.6-0.2,0.9-0.2C112.9,180.2,112.9,180.4,112.9,180.6z M115.2,186c-1.2-0.3-1.4,0.4-1.7,0.9
		C111.7,186.2,115.1,184.2,115.2,186z M115.5,233.7c-0.6,0.1-0.8-0.3-0.7-0.9C115.1,233,115.7,233,115.5,233.7z M115.2,203.4
		c-1.1-0.1-1.1,0-1.9-0.5c-0.4-1.9,1.4-3.5,2.8-2.3C116,201.9,114.6,202.1,115.2,203.4z M115.7,193.3c0.2-0.8,0.4-0.1,1.2-0.2
		C116.9,194,116.1,193.6,115.7,193.3z M116.7,173.4C117,172.6,117.3,174.3,116.7,173.4L116.7,173.4z M116.7,167.5
		C116.7,166.8,117.6,167.7,116.7,167.5L116.7,167.5z M117.6,130.2c-0.5,0.1-0.6-0.2-0.9-0.2C116.6,129.6,118,129.6,117.6,130.2z
		 M117.8,162.3c0,0.2-0.2,0.2-0.2,0.5c-0.2,0-0.2-0.2-0.5-0.2c0-0.2,0.2-0.2,0.2-0.5C117.6,162.1,117.6,162.3,117.8,162.3z
		 M117.1,169.5c0.3,0,0.6,0,0.9,0c0,0.4,0,0.8,0,1.1C117.2,170.8,117.2,170.2,117.1,169.5z M117.8,176.8
		C118.4,175.9,118.2,177.5,117.8,176.8L117.8,176.8z M117.6,121.2c-3.6-0.3-0.8-5.2,1.2-2.5C118.1,119.6,117,119.7,117.6,121.2z
		 M118.8,43.1c0.2,0,0.3,0,0.5,0c0,0.2,0,0.3,0,0.5c-0.2,0-0.3,0-0.5,0C118.8,43.4,118.8,43.2,118.8,43.1z M121.6,159.4
		c-0.9,0.1-1.2-0.8-0.7-1.4c0.4,0,0.5,0.3,0.9,0.2C122,158.8,121.4,158.7,121.6,159.4z M123.8,172.9
		C124.5,172.1,124.6,173.6,123.8,172.9L123.8,172.9z M119.3,151c1.3-1.3,4.1-0.6,4.3,1.1c-0.2,0.3-0.8,0.3-1.2,0.5
		c-0.1,1,0.5,1.4,0.7,2c0.9,0.2,1.1-0.3,1.9-0.2c-1.2,0.8-0.1,1.4,0.2,2.5C122.4,156.8,120.2,153,119.3,151z M125.2,74
		C125.2,73.3,126.2,74.2,125.2,74L125.2,74z M126.6,269.1c-0.2,0-0.3,0-0.5,0c0-0.2,0-0.3,0-0.5c0.2,0,0.3,0,0.5,0
		C126.6,268.8,126.6,269,126.6,269.1z M126.1,60.9c-0.1-0.2-0.2-0.4-0.2-0.7c0.2-0.2,0.5-0.2,0.9-0.2
		C126.9,60.6,126.8,61,126.1,60.9z M127.8,72.7c-0.6-0.1-0.1-1.1,0.5-0.9C128.5,72.4,127.8,72.2,127.8,72.7z M130.2,92.3
		c-0.6,0.1-0.9,0-1.2-0.2C129,91.7,130.5,91.6,130.2,92.3z M132.8,98.6C133.2,97.8,133.5,99.4,132.8,98.6L132.8,98.6z M132.6,86.4
		c0.6-0.1,1,0.1,0.9,0.7C133.2,87.4,132.4,87.2,132.6,86.4z M135.9,93c0-0.3,0-0.6,0-0.9c0.5-0.1,0.6,0.2,0.9,0.2
		C136.6,92.6,136.6,93.2,135.9,93z M138.5,265.1C138.5,264.4,139.5,265.3,138.5,265.1L138.5,265.1z M135.9,86
		c-4.1-1.6,2.2-5.2,3.8-1.1C138.2,83.4,135.1,83.1,135.9,86z M140.4,16.9c0.5-0.1,0.6,0.2,0.9,0.2C141.3,17.8,140.2,17.6,140.4,16.9
		z M143,87.6c0.5,0,0.8,0.2,0.7,0.7C143.2,88.3,142.9,88.1,143,87.6z M145.6,279.5C145.6,278.9,146.6,279.7,145.6,279.5L145.6,279.5
		z M145.6,52.3c0.5,0,0.8,0.2,0.7,0.7C145.8,53.1,145.6,52.8,145.6,52.3z M149.2,30c-0.4,0.6-1.2,0.8-2.1,0.9
		C146.7,29.3,148.9,28.4,149.2,30z M148.4,80.6c-0.6-0.1,0.3-0.4,0-0.9c0.3,0,0.6,0,0.9,0C149.4,80.2,148.5,80,148.4,80.6z
		 M242.1,234.1c0.2,0,0.3,0,0.5,0c0,0.2,0,0.3,0,0.5c-0.2,0-0.3,0-0.5,0C242.1,234.4,242.1,234.3,242.1,234.1z M240.2,86.7
		c0,0.2,0,0.5,0,0.7c-0.2,0-0.5,0-0.7,0C239.5,86.8,239.7,86.6,240.2,86.7z M237.4,225.8c-0.7-0.2-0.3-0.6-0.2-1.1
		c0.3,0,0.6,0,0.9,0C238,225.2,237.3,225.1,237.4,225.8z M233.8,86.4c0,0.2,0,0.3,0,0.5C232.7,87.1,233.4,85.7,233.8,86.4z
		 M222.2,80.8c0.2,0,0.3,0,0.5,0c0,0.2,0,0.3,0,0.5c-0.2,0-0.3,0-0.5,0C222.2,81.1,222.2,80.9,222.2,80.8z M202.7,40.1
		c0.2,0.1,0.4,0.2,0.7,0.2c-0.1,1-0.7,1.4-0.5,2.7C201.9,42.8,201.7,40.6,202.7,40.1z M197.3,74.9c-0.3-0.1-0.4-0.4-0.7-0.5
		C196.7,73.9,197.5,74.5,197.3,74.9z M174.5,71.5C174.9,70.7,175.3,72.3,174.5,71.5L174.5,71.5z M158.9,68.4c0.5-0.1,0.9,0,1.2,0.2
		c0.2,0.5-0.8,1-0.2,1.1C159,70.7,158.1,69,158.9,68.4z M159.8,60C159.7,59.9,160,60.2,159.8,60L159.8,60z M151.3,259.4
		C151.3,258.8,152.3,259.6,151.3,259.4L151.3,259.4z M151.5,48.9c0.8-0.4,0.9,0.1,1.9,0C153,49.7,151.5,50.7,151.5,48.9z
		 M153.4,256.9c-0.2,0-0.3,0-0.5,0c0-0.2-0.1-0.2-0.2-0.2C152.6,256.3,153.8,256.4,153.4,256.9z M153.4,23
		C153.5,22.3,154.4,23.2,153.4,23L153.4,23z M154.4,89.1c0,0,0-0.2,0-0.2C155.6,87.8,153.8,90.5,154.4,89.1z M155.3,46
		c0.7-0.2,0.6,0.3,1.2,0.2C156.7,47.3,154.9,47.1,155.3,46z M157.2,73.6c0-0.2,0-0.5,0-0.7c0.4-0.4,1.1-0.1,1.7,0
		C158.8,73.6,157.7,74,157.2,73.6z M158.9,89.4c-2.6-0.4-0.4-4,1.4-2C159.7,88,158.1,88.1,158.9,89.4z M159.8,51.4
		c0.1-0.5,1-0.1,1.2,0C160.7,52,160.1,52,159.8,51.4z M166,285.4C166.1,285.5,165.9,285.3,166,285.4L166,285.4z M166,42.8
		c-1,0.3-1.2-0.7-0.7-1.1C166.1,41.8,166.3,42.2,166,42.8z M166.2,13c-0.2,0-0.3,0-0.5,0c0-0.2-0.1-0.2-0.2-0.2
		C165.4,12.4,166.6,12.5,166.2,13z M169.3,267.8C169.9,266.9,169.7,268.5,169.3,267.8L169.3,267.8z M169.1,95
		c-1.5-0.2-0.3-2.9,0.9-1.8C170,94.1,169.4,94.5,169.1,95z M171.7,50.5c0.1,0.7-0.2,1-0.9,0.9C170.3,50.6,170.8,50.1,171.7,50.5z
		 M170.7,67.9c-0.4-1.5,0.9-2.2,1.9-1.6C172.1,67,171.8,67.8,170.7,67.9z M172.6,85.3c0.2,0.6-0.3,0.6-0.2,1.1
		C172,86.1,171.6,85.2,172.6,85.3z M175.2,263.5c-1.3,0.5-2.4-0.6-2.6-1.8c0.8-0.1,2.1-0.5,2.8,0
		C175.3,262.4,174.8,262.7,175.2,263.5z M175.7,278.6C176.9,277.7,176.6,279.8,175.7,278.6L175.7,278.6z M176.9,272.1
		C176.9,271.4,177.9,272.3,176.9,272.1L176.9,272.1z M180.2,249.9c0.1-0.3,0.3-0.5,0.7-0.5C181,250,180.6,249.9,180.2,249.9z
		 M179.3,32.2c0.2,0.8-0.4,0.9-0.2,1.6c-1.5-0.2-0.8-1.5-1.2-2.5c0.7-0.4,2.7-0.4,3.1,0.2C180.7,32.1,179.7,31.9,179.3,32.2z
		 M184.5,83c-0.2,0-0.3,0-0.5,0c0-0.2-0.1-0.2-0.2-0.2C183.7,82.4,184.9,82.5,184.5,83z M187.1,254.7c0.5-0.1,0.6,0.2,0.9,0.2
		C188,255.6,186.9,255.5,187.1,254.7z M187.8,267.3C187.9,266.7,188.8,267.5,187.8,267.3L187.8,267.3z M189,250.6
		c-1.2,0.2-0.4-1.2,0-0.5C189,250.3,189,250.5,189,250.6z M189,62.3c-0.5-0.1-0.5-0.6-0.2-0.9C189.3,61.4,189.3,62,189,62.3z
		 M188.8,51.7c-0.2-0.7,0.2-0.8,0.2-1.4c0.4,0,0.5,0.3,0.9,0.2C189.8,51.2,189.4,51.6,188.8,51.7z M192.3,256
		C192.2,255.9,192.5,256.2,192.3,256L192.3,256z M193.5,60.9C193.8,60.2,194.8,61.2,193.5,60.9L193.5,60.9z M196.6,252.4
		c-0.8,0.2-0.8-0.3-0.7-0.9C196.5,251.5,196.6,251.8,196.6,252.4z M197.3,271.6C197.7,270.8,198,272.4,197.3,271.6L197.3,271.6z
		 M199,277.5C199.2,276.8,200.2,277.7,199,277.5L199,277.5z M201.8,57.5c0-0.4,0-0.8,0-1.1c0.6-0.1,0.9,0,1.2,0.2
		C202.6,56.9,202.7,57.7,201.8,57.5z M202.3,48.7c-0.3-0.3-0.3-1.5,0-1.8c0.8-0.2,1,0.3,1.4,0.5C202.9,47.5,203.3,48.7,202.3,48.7z
		 M205.4,63.9c-1.3,0.2-1.4-1.3-0.7-1.8C205.7,61.9,205.3,63.1,205.4,63.9z M205.8,75.6c0.6-0.1,1,0.1,0.9,0.7
		C206.2,76.3,205.8,76.2,205.8,75.6z M207.3,66.8C205.2,65.9,207.9,64.6,207.3,66.8L207.3,66.8z M207,55.9c-0.2-0.2-0.3-0.5-0.2-0.9
		c0.3-0.2,0.6-0.3,1.2-0.2C207.8,55.4,207.6,55.9,207,55.9z M208,50.1c-0.6,0.1-1-0.1-0.9-0.7C207.6,49.3,208.2,49.3,208,50.1z
		 M214.4,48C212.8,48.2,214.5,46.6,214.4,48L214.4,48z M217,32.5c0.5,0,0.8,0.2,0.7,0.7C217.1,33.3,216.8,33,217,32.5z M219.4,74.2
		c-0.3,0-0.6,0-0.9,0C218.2,73.4,219.5,73.4,219.4,74.2z M219.4,29.3c0.5,0,0.8,0.2,0.7,0.7C219.4,30.1,219.2,29.9,219.4,29.3z
		 M223.4,267.1c-3.3,1-3.1-4.9,0-4.1c0,1.2-0.9,1.7-1.4,2.5C222.1,266.4,222.8,266.7,223.4,267.1z M223.4,228.9
		C223.8,228.1,224.1,229.7,223.4,228.9L223.4,228.9z M224.3,202.5c-0.5-0.3-1.1-0.6-0.9-1.6c0.3,0,0.6,0,0.9,0
		C224.2,201.8,224.2,201.6,224.3,202.5z M224.3,33.8c-0.6,0.1-0.9-0.1-0.7-0.7c0.2,0,0.5,0,0.7,0C224.3,33.4,224.3,33.6,224.3,33.8z
		 M228.6,237.3c-1.2-0.4-0.9,0.1-1.7,0.5c0.2,0.2,0.5,0.2,0.5,0.7c-1.1-0.4-1.3,0.7-1.9,0.2c0.2-0.9,0-0.8,0-1.8
		c1.4-0.2,2-0.2,3.3-0.7C228.9,236.7,228.8,237,228.6,237.3z M228.6,221c0.5,0,0.8,0.2,0.7,0.7C228.8,221.8,228.6,221.5,228.6,221z
		 M229.1,234.8c0-0.3,0-0.6,0-0.9C230.2,233.7,230.3,235.1,229.1,234.8z M228.8,187.8c0.7-0.6,1.4,0.1,1.9,0.5
		c-0.5,0.7-1.2-0.5-0.7,0.7C229.2,189,228.8,188.6,228.8,187.8z M231,210.4C229.4,210.6,231.1,209,231,210.4L231,210.4z
		 M232.6,257.6c0.2-0.8,0.8-0.3,1.2,0C233.6,258.3,233.1,257.5,232.6,257.6z M233.3,209.1c0.5,0,0.8,0.2,0.7,0.7
		C233.5,209.8,233.3,209.6,233.3,209.1z M237.6,207.9c0.1,0.5-0.4,0.5-0.2,1.1c-0.7,0-0.8-0.6-0.9-1.1
		C236.7,207.6,237.3,207.6,237.6,207.9z M238.8,242.7c-2.3,2.2-3-4.1,0.2-2.7C238.3,240.6,236.5,242.4,238.8,242.7z M238.8,216.3
		C238.8,215.6,239.8,216.5,238.8,216.3L238.8,216.3z M239.3,186.3C239.4,186.4,239.2,186.2,239.3,186.3L239.3,186.3z M239.5,211.6
		c0-0.2,0-0.3,0-0.5c0.3,0,0.6,0,0.9,0C240.7,211.8,239.9,211.5,239.5,211.6z M241.9,243.2c-0.5-0.5,0-1.3,0.2-1.8
		c0.7-0.2,0.6,0.3,1.2,0.2C243.1,242.4,243,243.3,241.9,243.2z M243.3,237.3c-0.1-0.8,1.2-0.8,1.7-0.5
		C245.1,237.5,243.7,237.8,243.3,237.3z M244.7,236.2C245.1,235.4,245.3,237,244.7,236.2L244.7,236.2z M245.9,75.1
		C244.8,76.6,244.5,73.7,245.9,75.1L245.9,75.1z M246.9,245c0.3,0.4-1,1.8,0.7,2.3c-2.7,0.9-2-4,0.7-2.5
		C248.3,245.4,247.2,245.3,246.9,245z M250.9,212c-0.9,0.2-0.8-1-0.5-1.4c0.2,0,0.5,0,0.7,0C251.3,211.3,250.7,211.3,250.9,212z
		 M253.3,213.8C253.4,214,253.2,213.7,253.3,213.8L253.3,213.8z M282.9,187.4c-0.1,0.4-0.7,0.2-0.5,0.9c-0.5,0.1-0.6-0.2-0.9-0.2
		C281.6,187.5,282.3,186.8,282.9,187.4z M282.7,191.7c-0.1,0.8-1.1,0.8-0.2,1.6c-0.6,0.7-1-0.7-0.9-1.4
		C281.8,191.7,282.1,191.6,282.7,191.7z M276,189.2c0,0.7-0.4,1.1-1.2,1.1C274.3,189.7,274.9,188.9,276,189.2z M274.6,184.2
		c0.2,0,0.3,0,0.5,0c0,0.1,0,0.3,0,0.5c-0.2,0-0.3,0-0.5,0C274.6,184.5,274.6,184.4,274.6,184.2z M272.5,210.9
		C272.4,210.8,272.6,211,272.5,210.9L272.5,210.9z M271.3,196.6C271.3,196,272.3,196.9,271.3,196.6L271.3,196.6z M271.1,187.8
		C271.2,188,271,187.7,271.1,187.8L271.1,187.8z M271.1,204.5c0,0.3,0,0.6,0,0.9C269.9,205.7,269.8,204.3,271.1,204.5z M269.6,186.5
		C269.5,186.4,269.8,186.6,269.6,186.5L269.6,186.5z M268.9,212.7c0.1,0.7-0.6,0.8-0.9,0.5C268,212.7,268.4,212.6,268.9,212.7z
		 M267,204.3c0.4-0.1,0.4,0.2,0.7,0.2c0,0.2-0.2,0.2-0.2,0.5c-0.2,0-0.3,0-0.5,0C267,204.8,267,204.5,267,204.3z M265.8,84.6
		c-0.6,0.1-1-0.1-0.9-0.7C265.5,83.9,265.9,84,265.8,84.6z M264.9,81c0.2,0,0.5,0,0.7,0c0.1,0.5-0.2,0.6-0.2,0.9
		C264.9,81.9,264.8,81.5,264.9,81z M264.4,188.3c0.2,0,0.3,0,0.5,0c0,0.1,0,0.3,0,0.5c-0.2,0-0.3,0-0.5,0
		C264.4,188.6,264.4,188.4,264.4,188.3z M261.8,196c0.6,0,1.4-0.1,1.7,0.2c0.3,0.7-0.8,0.2-0.5,0.9C262.3,197,261.7,196.9,261.8,196
		z M260.9,219.5c-0.5,0-0.8-0.2-0.7-0.7C260.4,219,261,218.8,260.9,219.5z M259,225.8c0.7-0.3,0.7,1,0,0.7
		C259,226.2,259,226,259,225.8z M258.2,187.2C258.8,186.3,258.6,187.9,258.2,187.2L258.2,187.2z M256.6,87.8
		C256.6,87.1,257.6,88,256.6,87.8L256.6,87.8z M254.7,218.3c0.2,0,0.3,0,0.5,0c0,0.2,0,0.3,0,0.5c-0.2,0-0.3,0-0.5,0
		C254.7,218.6,254.7,218.5,254.7,218.3z M254.2,74.7C254.6,73.9,255,75.4,254.2,74.7L254.2,74.7z M253.5,193.7
		c-0.6,0.6,0.3,0.7,0.2,1.4c-0.7,0.6-1-0.8-1.7-0.9c-0.6,0.1,0.3,0.4,0,0.9c-4.9-1.3-1.2-8,1.7-3.2c-0.6-0.2-1.3-0.3-2.1-0.2
		C251.2,192.6,251.4,194.1,253.5,193.7z M252.8,88.7C253.5,87.9,253.6,89.4,252.8,88.7L252.8,88.7z M252.3,62.3
		c-0.7,0-2.4,1.1-2.6,2.3C248.9,63.1,250.4,61.9,252.3,62.3z"/>
	<g>
		<path fill="none" stroke="#FFFFFF" stroke-width="2" stroke-miterlimit="10" d="M94.5,93v29.7c0,0,8.8,22.8,42.1,24.3V90H94.5V93z
			"/>
		<path fill="#FFFFFF" d="M110.2,86.1V133c0,0,8.8,35.9,42.1,38.2V81.5h-42.1V86.1z"/>
		<path fill="#0081AC" d="M116.8,95.7v35.6c0,0,6.7,27.3,32.1,29.1V92.2h-32.1V95.7z"/>
		<path fill="none" stroke="#FFFFFF" stroke-width="2" stroke-miterlimit="10" d="M208.1,93v29.7c0,0-8.8,22.8-42.1,24.3V90h42.1V93
			z"/>
		<path fill="#FFFFFF" d="M192,86.1V133c0,0-8.8,35.9-42.1,38.2V81.5H192V86.1z"/>
		<path fill="#FFFFFF" d="M130.1,160.9l11.1,11.1c0,0,16.6,24.4-11.1,34.2h22.2v-45.3H130.1z"/>
		<path fill="#FFFFFF" d="M173,160.9L161.9,172c0,0-16.6,24.4,11.1,34.2h-22.2v-45.3H173z"/>
		<rect x="125" y="209.3" fill="#FFFFFF" width="54.9" height="29.6"/>
	</g>
</g>
</svg>
