<?xml version="1.0" encoding="utf-8"?>
<!-- Generator: Adobe Illustrator 17.1.0, SVG Export Plug-In . SVG Version: 6.00 Build 0)  -->
<!DOCTYPE svg PUBLIC "-//W3C//DTD SVG 1.1//EN" "http://www.w3.org/Graphics/SVG/1.1/DTD/svg11.dtd">
<svg version="1.1" id="Layer_1" xmlns="http://www.w3.org/2000/svg" xmlns:xlink="http://www.w3.org/1999/xlink" x="0px" y="0px"
	 viewBox="0 0 300 300" enable-background="new 0 0 300 300" xml:space="preserve">
<g>
	<path fill="#FFC426" d="M10.3,166.8c0.1,0.4,0.1,0.8,0.2,1.3c0.9-0.1,1.4,0.2,2.2,0.2c-0.4,0.6-1.5,0.7-1.9,1.4
		c0,0.7,0.5,0.8,0.9,1.1c-0.3,0.2-0.5,0.4-0.7,0.7c10.5,67.4,68.8,119,139.1,119c0.3,0,0.7,0,1,0c-0.5-1-1.3-2.5-3-1.9
		c0.3-0.5,0-0.7,0.5-1.4c0.2,0,0.5,0,0.7,0c0.2,1.5,2.6,1.7,2.3,3.3c3.6,0,7.2-0.2,10.7-0.5c0-0.1,0-0.3,0-0.5
		c0.6-0.1,1.1,0,1.2,0.4c12-1.1,23.6-3.8,34.6-7.7c0,0-0.1,0-0.1,0c-0.6,0-1.3,0-1.9,0c-0.2,0-0.3,0-0.5,0c-0.1,0-0.2,0-0.2,0
		c-0.2,0-0.3,0-0.5,0c-0.1,0-0.2,0-0.2,0c-0.9,0-1.7,0-2.6,0c-0.2,0-0.5,0-0.7,0c-1.7,0-3.3,0-5,0c1-1.9-0.2-3.9-0.2-6.1
		c1.5-2,4.3-6.5,7.8-3.6c-0.8,1.7-2.2,2.5-3.8,4.7c1.3,1.6,2.1,0.1,3.3-0.7c0.3,0.3,0.3,0.8,0.2,1.4c-1.1,0.4-1.7,1.2-1.9,2.5
		c0.3,0,0.6,0.1,0.5,0.5c1.3,0.3,1.8-1.7,2.4-0.7c0.3-0.8-1.1-1.1-0.2-1.6c-0.2,1.1,1.3,0.6,1.2,1.6c-1.2-0.1-0.2,0.5-0.7,1.1
		c1.4,0.2,1-1.1,1.4-1.8c2.2-0.2,3.2,0.7,4.5,1.4c-1.2,0.1-1.9,0.7-2.5,1.3c3.8-1.4,7.6-3,11.3-4.7c-0.3-0.2-0.6-0.4-0.9-0.5
		c0.3-1.3,1.4-0.6,2.4-0.2c0,0,0,0,0,0c0.3-0.2,0.6-0.3,0.9-0.5c0.1-0.6,0-1.1-0.7-0.9c0.7-0.3-0.1-0.7,0.7-0.7
		c0-1.5-1.4-0.3-1.4-1.6c2.1-0.2,2.8,1.1,2.8,2.5c46.1-23.2,77.7-70.8,77.7-125.9c0-77.8-63-140.8-140.8-140.8
		c-30.6,0-58.9,9.8-82,26.3c-0.1,0.8-0.8,1.2-1.5,1.1C38.5,57,18.3,88,11.7,123.7c0.1,0.1,0.2,0.2,0.3,0.3c0,0.3-0.2,0.5-0.4,0.5
		c-1.5,8.2-2.2,16.6-2.2,25.2c0,4.3,0.2,8.5,0.6,12.7c1.4,0.2,2.6,0.5,1.6,2.3c-0.6-0.1-1-0.4-1.5-0.6c0.1,0.7,0.2,1.5,0.3,2.2
		c0,0,0,0,0,0C10.4,166.5,10.4,166.6,10.3,166.8z M251.3,176.9c-0.9,0.2-0.8-1-0.5-1.4c0.2,0,0.5,0,0.7,0
		C251.7,176.2,251.1,176.2,251.3,176.9z M253.6,178.7C253.8,178.8,253.5,178.6,253.6,178.7L253.6,178.7z M288.3,162.2
		C288.7,161.4,289,162.9,288.3,162.2L288.3,162.2z M290.2,148.2c0.2,0,0.3,0,0.5,0c0,0.2,0,0.3,0,0.5c-0.2,0-0.3,0-0.5,0
		C290.2,148.5,290.2,148.3,290.2,148.2z M289.9,158.8c-0.5,0.7-1.3,0.8-0.7,2C286.7,160.9,288.1,156.9,289.9,158.8z M285.4,171.4
		C285.8,170.7,286,172.3,285.4,171.4L285.4,171.4z M283.3,152.2c-0.1,0.4-0.7,0.2-0.5,0.9c-0.5,0.1-0.6-0.2-0.9-0.2
		C282,152.3,282.6,151.6,283.3,152.2z M283,156.5c-0.1,0.8-1.1,0.8-0.2,1.6c-0.6,0.7-1-0.7-0.9-1.4
		C282.1,156.6,282.5,156.5,283,156.5z M282.3,188.8c-0.2,0-0.3,0-0.5,0c0-0.2-0.1-0.2-0.2-0.2C281.5,188.2,282.7,188.3,282.3,188.8z
		 M279.2,201.5c0.2,0,0.3,0,0.5,0c0,0.2,0,0.3,0,0.5c-0.2,0-0.3,0-0.5,0C279.2,201.8,279.2,201.6,279.2,201.5z M276.4,154
		c0,0.7-0.4,1.1-1.2,1.1C274.7,154.6,275.3,153.8,276.4,154z M275,149.1c0.2,0,0.3,0,0.5,0c0,0.1,0,0.3,0,0.5c-0.2,0-0.3,0-0.5,0
		C275,149.4,275,149.2,275,149.1z M272.8,175.7C272.7,175.6,273,175.9,272.8,175.7L272.8,175.7z M271.7,161.5
		C271.7,160.8,272.6,161.7,271.7,161.5L271.7,161.5z M271.4,152.7C271.6,152.8,271.3,152.6,271.4,152.7L271.4,152.7z M271.4,169.4
		c0,0.3,0,0.6,0,0.9C270.3,170.5,270.2,169.1,271.4,169.4z M270,151.3C269.9,151.2,270.1,151.5,270,151.3L270,151.3z M269.3,177.5
		c0.1,0.7-0.6,0.8-0.9,0.5C268.4,177.6,268.7,177.5,269.3,177.5z M267.4,169.2c0.4-0.1,0.4,0.2,0.7,0.2c0,0.2-0.2,0.2-0.2,0.5
		c-0.2,0-0.3,0-0.5,0C267.4,169.6,267.4,169.4,267.4,169.2z M264.8,153.1c0.2,0,0.3,0,0.5,0c0,0.1,0,0.3,0,0.5c-0.2,0-0.3,0-0.5,0
		C264.8,153.4,264.8,153.3,264.8,153.1z M262.2,160.8c0.6,0,1.4-0.1,1.7,0.2c0.3,0.7-0.8,0.2-0.5,0.9
		C262.7,161.8,262,161.7,262.2,160.8z M261.2,184.3c-0.5,0-0.8-0.2-0.7-0.7C260.7,183.9,261.4,183.7,261.2,184.3z M259.3,190.6
		c0.7-0.3,0.7,1,0,0.7C259.3,191.1,259.3,190.9,259.3,190.6z M258.6,152C259.2,151.1,259,152.8,258.6,152L258.6,152z M255.1,183.2
		c0.2,0,0.3,0,0.5,0c0,0.2,0,0.3,0,0.5c-0.2,0-0.3,0-0.5,0C255.1,183.5,255.1,183.3,255.1,183.2z M254.1,156.8
		c-0.6-0.2-1.3-0.3-2.1-0.2c-0.4,1-0.2,2.4,1.9,2c-0.6,0.6,0.3,0.7,0.2,1.4c-0.7,0.6-1-0.8-1.7-0.9c-0.6,0.1,0.3,0.4,0,0.9
		C247.6,158.6,251.2,151.9,254.1,156.8z M222.8,243.7c-1.3,0.1-0.8-0.6-0.7-1.4c0.4,0,0.5,0.3,0.9,0.2
		C222.8,242.8,222.7,243.2,222.8,243.7z M229.4,199.7c0-0.3,0-0.6,0-0.9C230.5,198.6,230.7,200,229.4,199.7z M238.7,241
		C238.6,240.9,238.8,241.1,238.7,241L238.7,241z M239.2,207.6c-2.3,2.2-3-4.1,0.2-2.7C238.7,205.5,236.9,207.3,239.2,207.6z
		 M248.4,221.1c-0.2,0-0.3,0-0.5,0c0-0.2-0.1-0.2-0.2-0.2C247.6,220.5,248.8,220.6,248.4,221.1z M248.6,209.6c0,0.6-1.1,0.5-1.4,0.2
		c0.3,0.4-1,1.8,0.7,2.3C245.2,213,246,208.1,248.6,209.6z M245.1,201C245.4,200.3,245.7,201.9,245.1,201L245.1,201z M245.3,201.7
		c0.1,0.7-1.3,1-1.7,0.5C243.6,201.4,244.9,201.3,245.3,201.7z M242.5,199c0.2,0,0.3,0,0.5,0c0,0.2,0,0.3,0,0.5c-0.2,0-0.3,0-0.5,0
		C242.5,199.3,242.5,199.1,242.5,199z M242.5,206.2c0.7-0.2,0.6,0.3,1.2,0.2c-0.2,0.8-0.3,1.7-1.4,1.6
		C241.7,207.5,242.3,206.7,242.5,206.2z M240.6,51.5c0,0.2,0,0.5,0,0.7c-0.2,0-0.5,0-0.7,0C239.8,51.7,240.1,51.5,240.6,51.5z
		 M239.9,176c0.3,0,0.6,0,0.9,0c0.2,0.7-0.5,0.4-0.9,0.5C239.9,176.3,239.9,176.1,239.9,176z M239.6,151.1
		C239.8,151.3,239.5,151,239.6,151.1L239.6,151.1z M239.2,181.1C239.2,180.5,240.1,181.4,239.2,181.1L239.2,181.1z M237.7,190.6
		c-0.7-0.2-0.3-0.6-0.2-1.1c0.3,0,0.6,0,0.9,0C238.4,190,237.6,189.9,237.7,190.6z M238,172.8c0.1,0.5-0.4,0.5-0.2,1.1
		c-0.7,0-0.8-0.6-0.9-1.1C237.1,172.5,237.7,172.5,238,172.8z M234.4,174.6c-0.5,0-0.8-0.2-0.7-0.7
		C234.2,173.9,234.5,174.1,234.4,174.6z M234.2,51.3c0,0.2,0,0.3,0,0.5C233,52,233.7,50.5,234.2,51.3z M234.2,222.5
		c-0.2,0.7-0.8-0.1-1.2,0C233.2,221.7,233.8,222.2,234.2,222.5z M231.3,175.3C229.7,175.5,231.5,173.8,231.3,175.3L231.3,175.3z
		 M231.1,153.1c-0.5,0.7-1.2-0.5-0.7,0.7c-0.8,0-1.2-0.3-1.2-1.1C229.9,152.1,230.7,152.8,231.1,153.1z M229.7,186.6
		c-0.5,0-0.8-0.2-0.7-0.7C229.5,185.8,229.7,186.1,229.7,186.6z M225.9,201.7c1.4-0.2,2-0.2,3.3-0.7c0.1,0.5,0,0.9-0.2,1.1
		c-1.2-0.4-0.9,0.1-1.7,0.5c0.2,0.2,0.5,0.2,0.5,0.7c-1.1-0.4-1.4,0.7-1.9,0.2C226.1,202.6,225.9,202.7,225.9,201.7z M224.7,165.8
		c-0.1,0.9-0.1,0.7,0,1.6c-0.5-0.3-1.1-0.6-0.9-1.6C224.1,165.8,224.4,165.8,224.7,165.8z M223.7,193.8
		C224.1,193,224.5,194.5,223.7,193.8L223.7,193.8z M222.6,45.6c0.2,0,0.3,0,0.5,0c0,0.2,0,0.3,0,0.5c-0.2,0-0.3,0-0.5,0
		C222.6,45.9,222.6,45.8,222.6,45.6z M223.7,227.9c0,1.2-0.9,1.7-1.4,2.5c0.1,0.9,0.8,1.2,1.4,1.6C220.5,233,220.7,227,223.7,227.9z
		 M219.7,39.1c-0.3,0-0.6,0-0.9,0C218.6,38.2,219.9,38.2,219.7,39.1z M207.6,31.6C205.6,30.7,208.3,29.5,207.6,31.6L207.6,31.6z
		 M207.1,41.1c-0.6,0.1-1-0.1-0.9-0.7C206.8,40.4,207.2,40.5,207.1,41.1z M205,26.9c1-0.2,0.6,1,0.7,1.8
		C204.4,28.9,204.3,27.4,205,26.9z M202.2,21.3c0.6-0.1,0.9,0,1.2,0.2c-0.4,0.3-0.3,1.1-1.2,0.9C202.2,22,202.2,21.6,202.2,21.3z
		 M199.3,242.4C199.6,241.7,200.6,242.6,199.3,242.4L199.3,242.4z M197.7,236.5C198.1,235.7,198.4,237.2,197.7,236.5L197.7,236.5z
		 M197.7,39.8c-0.3-0.1-0.4-0.4-0.7-0.5C197,38.8,197.9,39.3,197.7,39.8z M196.2,216.4c0.6-0.1,0.8,0.3,0.7,0.9
		C196.2,217.5,196.2,217,196.2,216.4z M195.8,280.7c-0.2,0-0.3,0-0.5,0c0-0.2,0-0.3,0-0.5c0.2,0,0.3,0,0.5,0
		C195.8,280.4,195.8,280.6,195.8,280.7z M194.1,272.8C194.3,273,194,272.7,194.1,272.8L194.1,272.8z M193.9,25.8
		C194.1,25.1,195.1,26,193.9,25.8L193.9,25.8z M194.1,258.4c0.8,0.2,0.1,0.4,0.2,1.1c-0.6,0.1-0.6-0.5-0.7-0.9
		C193.9,258.6,194.1,258.6,194.1,258.4z M192.7,220.9C192.6,220.8,192.8,221,192.7,220.9L192.7,220.9z M189.4,15.2
		c0.4,0,0.5,0.3,0.9,0.2c-0.1,0.7-0.5,1-1.2,1.1C189,15.8,189.4,15.7,189.4,15.2z M189.1,26.2c0.6,0.1,0.5,0.6,0.2,0.9
		C188.8,27.1,188.8,26.5,189.1,26.2z M189.4,215c0,0.2,0,0.3,0,0.5C188.2,215.7,188.9,214.3,189.4,215z M188.2,232.2
		C188.2,231.5,189.2,232.4,188.2,232.2L188.2,232.2z M187.5,219.5c0.5-0.1,0.6,0.2,0.9,0.2C188.4,220.4,187.3,220.3,187.5,219.5z
		 M169.7,232.6C170.3,231.8,170,233.4,169.7,232.6L169.7,232.6z M184.9,47.9c-0.2,0-0.3,0-0.5,0c0-0.2-0.1-0.2-0.2-0.2
		C184,47.2,185.2,47.3,184.9,47.9z M182.7,281.4C183.1,280.7,183.3,282.3,182.7,281.4L182.7,281.4z M181.3,214.3
		c0.1,0.5-0.3,0.4-0.7,0.5C180.7,214.5,180.9,214.3,181.3,214.3z M177.3,236.9C177.3,236.3,178.2,237.1,177.3,236.9L177.3,236.9z
		 M176.1,243.5C177.3,242.6,177,244.7,176.1,243.5L176.1,243.5z M174.9,36.4C175.3,35.6,175.6,37.1,174.9,36.4L174.9,36.4z
		 M175.8,226.5c-0.2,0.7-0.7,1-0.2,1.8c-1.3,0.5-2.4-0.6-2.6-1.8C173.8,226.4,175.1,226,175.8,226.5z M172.8,51.3
		c-0.4-0.3-0.7-1.2,0.2-1.1C173.2,50.8,172.7,50.7,172.8,51.3z M173,31.2c-0.5,0.6-0.8,1.5-1.9,1.6C170.7,31.3,172,30.6,173,31.2z
		 M172,15.4c0.1,0.7-0.2,1-0.9,0.9C170.6,15.4,171.1,14.9,172,15.4z M170.9,271.5c-0.8,0-1.1-0.9-0.7-1.4
		C171,270,170.9,270.8,170.9,271.5z M170.4,58.1c0,0.9-0.6,1.2-0.9,1.8C168,59.7,169.1,56.9,170.4,58.1z M167.3,264.9
		c0.9-0.2,0.9,1.1,0,0.9C167.3,265.2,166.9,265.4,167.3,264.9z M166.4,250.3C166.5,250.4,166.3,250.2,166.4,250.3L166.4,250.3z
		 M153.1,286.3c-0.2,0-0.2,0.1-0.2,0.2c-0.2,0-0.3,0-0.5,0c0-0.2-0.1-0.2-0.2-0.2c0-0.2,0-0.3,0-0.5c0.2,0,0.2-0.1,0.2-0.2
		c0.2,0,0.3,0,0.5,0c0,0.2,0.1,0.2,0.2,0.2C153.1,286,153.1,286.1,153.1,286.3z M159.2,54.2c-2.6-0.4-0.4-4,1.4-2
		C160.1,52.8,158.5,53,159.2,54.2z M161.4,16.3c-0.3,0.5-0.9,0.5-1.2,0C160.3,15.8,161.2,16.2,161.4,16.3z M160.2,24.9
		C160.3,25,160.1,24.8,160.2,24.9L160.2,24.9z M159.2,33.2c0.5-0.1,0.9,0,1.2,0.2c0.2,0.5-0.8,1-0.2,1.1
		C159.4,35.5,158.5,33.8,159.2,33.2z M157.6,37.7c0.4-0.4,1.1-0.1,1.7,0c-0.1,0.7-1.2,1.1-1.7,0.7C157.6,38.2,157.6,38,157.6,37.7z
		 M155.7,10.9c0.7-0.2,0.6,0.3,1.2,0.2C157,12.1,155.3,11.9,155.7,10.9z M154.7,53.8c1.2-1.2-0.5,1.6,0,0.2
		C154.8,54,154.7,53.8,154.7,53.8z M155.4,261.3c-0.1,0.5-0.6,0.5-0.9,0.2C154.6,261,155.1,261,155.4,261.3z M154.3,261.8
		c0.6,0.1,0.1,1.1-0.5,0.9C153.5,262,154.2,262.1,154.3,261.8z M153.8,221.8c-0.2,0-0.3,0-0.5,0c0-0.2-0.1-0.2-0.2-0.2
		C153,221.1,154.2,221.2,153.8,221.8z M153.8,13.8c-0.5,0.7-1.9,1.8-1.9,0C152.7,13.4,152.8,13.8,153.8,13.8z M151.7,224.3
		C151.7,223.6,152.6,224.5,151.7,224.3L151.7,224.3z M149.3,271.9C149.2,271.8,149.4,272.1,149.3,271.9L149.3,271.9z M148.8,44.5
		c0.3,0,0.6,0,0.9,0c0,0.6-0.9,0.3-0.9,0.9C148.2,45.4,149.1,45,148.8,44.5z M70.8,146.4c-1.9-0.5,0.3-1.2-0.2-2.9
		c0.5-0.1,1.4-0.4,1.9,0C71.3,143.8,71.7,145.8,70.8,146.4z M76.2,150.7c-0.8-0.1-0.8-2.3,0.5-1.8C76.9,149.8,75.9,149.6,76.2,150.7
		z M76.7,71.8C76.1,71.2,77.4,72.5,76.7,71.8L76.7,71.8z M76.9,105.7C77.7,104.9,77.7,106.4,76.9,105.7L76.9,105.7z M82.2,201.9
		c-1.8,1-1.4,2.5,0.2,3.4C79.2,205.3,77.8,201,82.2,201.9z M78.6,176.2c0.2-0.5,0.2-1.2,0.5-1.6c1,0.3,1,1.3,0.5,2
		C79.2,176.5,79,176.3,78.6,176.2z M83.6,270.1c-0.9,0.2-0.3-0.9-0.5-1.4C83.9,268.5,84.1,269.9,83.6,270.1z M90.9,149.5
		c0.4-0.1,0.4,0.2,0.7,0.2C91.7,150.2,90.6,150.1,90.9,149.5z M91.7,127.6c-1.5,0.1-0.8-1.9,0.2-1.1
		C92.1,127.1,91.6,127.1,91.7,127.6z M94.7,210.5c0.3,0.1,0.5,0.3,0.5,0.7C94.6,211.2,94.4,210.8,94.7,210.5z M94,153.1
		c-0.1-0.4,1.3-0.4,0.9,0.2C94.5,153.5,94.3,153.2,94,153.1z M94,135.3c-4.8,0.4,0.2-5.3,1.2-0.7C93.8,133.8,94.3,135.3,94,135.3z
		 M92.4,72.7c0-0.2,0-0.3,0-0.5c0.2,0,0.3,0,0.5,0c0,0.2,0,0.3,0,0.5C92.7,72.7,92.5,72.7,92.4,72.7z M94.5,90.4
		c-2.2,0.2-1.1-3.9,0.7-2.5C95.3,89,94.3,89.1,94.5,90.4z M93.8,121.3c0.4-0.6,1.4-0.6,1.4-1.6c0.3-0.3,1.1-0.3,1.4,0
		C96.6,121,95,121.9,93.8,121.3z M96.6,79.1c0.5,0,0.8,0.2,0.7,0.7C96.7,79.9,96.5,79.7,96.6,79.1z M96.2,197.9c0.3,0,0.6,0,0.9,0
		c-1,1.1,0.5,1.9,0.5,3.4C95.9,201.1,96.4,198.8,96.2,197.9z M98.5,276.5c0.5-0.1,0.5,0.3,0.5,0.7C98.7,277,98.5,276.8,98.5,276.5z
		 M99.2,276C99.1,275.9,99.4,276.1,99.2,276L99.2,276z M101.8,155.6c0.1-0.5,0.6-0.5,0.9-0.2C102.7,155.9,102.2,155.9,101.8,155.6z
		 M102.8,146.8c-0.2,0-0.3,0-0.5,0c0-0.2,0-0.3,0-0.5c0.2,0,0.3,0,0.5,0C102.8,146.5,102.8,146.7,102.8,146.8z M104.7,138.7
		c-0.3,0.3,0,1.2-0.9,0.9C103.6,138.9,104,138.6,104.7,138.7z M104.5,218.6C104.8,217.9,105,219.5,104.5,218.6L104.5,218.6z
		 M104,144.3c0-0.8,0.3-0.6,0.9-0.5C104.9,144.7,104.6,144.5,104,144.3z M105.2,169c0.4-0.1,0.4,0.2,0.7,0.2
		C106,169.6,104.8,169.5,105.2,169z M107.1,191.8C107.4,191,107.7,192.6,107.1,191.8L107.1,191.8z M109,162.6c-0.2,0-0.3,0-0.5,0
		c0-0.2,0-0.3,0-0.5c0.2,0,0.3,0,0.5,0C109,162.3,109,162.5,109,162.6z M109,146.6c-0.3-0.2-0.9-0.2-0.7-0.9c0.3,0,0.6,0,0.9,0
		C109.3,146.2,109,146.3,109,146.6z M108.5,144.1c0-0.6,0.8-0.1,0.9,0C109.4,144.7,108.6,144.2,108.5,144.1z M109.4,273.5
		c1.1-0.3,0.8,0.9,1.4,1.1C110.4,275.1,109.5,274.1,109.4,273.5z M113,148.9c-0.2,0-0.3,0-0.5,0c0-0.2-0.1-0.2-0.2-0.2
		C112.2,148.2,113.4,148.3,113,148.9z M113.2,145.5c-0.7,0.3-0.6-0.4-0.9-0.5c0.1-0.3,0.6-0.2,0.9-0.2
		C113.2,145,113.2,145.2,113.2,145.5z M115.6,150.9c-1.2-0.3-1.4,0.4-1.7,0.9C112.1,151,115.5,149.1,115.6,150.9z M115.1,124
		c-0.9,0.1-1.2-0.8-0.7-1.4C115.7,122.7,115.6,123.3,115.1,124z M114.9,138.2C114.9,137.6,115.9,138.5,114.9,138.2L114.9,138.2z
		 M114.2,142.5c-0.2-0.2-0.9-0.1-0.7-0.7C114.1,141.7,114.3,141.9,114.2,142.5z M115.8,198.5c-0.6,0.1-0.8-0.3-0.7-0.9
		C115.5,197.8,116,197.8,115.8,198.5z M115.6,168.3c-1.1-0.1-1.1,0-1.9-0.5c-0.4-1.9,1.4-3.5,2.8-2.3
		C116.3,166.7,115,166.9,115.6,168.3z M117.3,256.4c-0.2,0-0.3,0-0.5,0c0-0.2,0-0.3,0-0.5c0.2,0,0.3,0,0.5,0
		C117.3,256.1,117.3,256.2,117.3,256.4z M116.1,158.1c0.2-0.8,0.4-0.1,1.2-0.2C117.3,158.9,116.4,158.5,116.1,158.1z M116.6,128.3
		C116.9,127.6,117.1,129.2,116.6,128.3L116.6,128.3z M117,138.2C117.4,137.5,117.6,139.1,117,138.2L117,138.2z M117,132.4
		C117.1,131.7,118,132.6,117,132.4L117,132.4z M118,95.1c-0.5,0.1-0.6-0.2-0.9-0.2C117,94.5,118.4,94.5,118,95.1z M118.2,127.2
		c0,0.2-0.2,0.2-0.2,0.5c-0.2,0-0.2-0.2-0.5-0.2c0-0.2,0.2-0.2,0.2-0.5C117.9,127,118,127.2,118.2,127.2z M117.5,134.4
		c0.3,0,0.6,0,0.9,0c0,0.4,0,0.8,0,1.1C117.6,135.7,117.5,135.1,117.5,134.4z M118.2,141.6C118.8,140.7,118.6,142.4,118.2,141.6
		L118.2,141.6z M120.3,273.5C120.4,272.8,121.3,273.7,120.3,273.5L120.3,273.5z M122,124.2c-0.9,0.1-1.2-0.8-0.7-1.4
		c0.4,0,0.5,0.3,0.9,0.2C122.3,123.6,121.8,123.6,122,124.2z M124.1,137.8C124.9,137,124.9,138.5,124.1,137.8L124.1,137.8z M127,234
		c-0.2,0-0.3,0-0.5,0c0-0.2,0-0.3,0-0.5c0.2,0,0.3,0,0.5,0C127,233.7,127,233.8,127,234z M133.1,285.4c0.2,0,0.3,0,0.5,0
		C133.6,285.6,133.2,285.7,133.1,285.4z M133.2,63.5C133.6,62.7,133.9,64.2,133.2,63.5L133.2,63.5z M135.3,276.7
		C135.4,276.8,135.2,276.6,135.3,276.7L135.3,276.7z M136,271.5c-0.2,0-0.3,0-0.5,0c0-0.2-0.1-0.2-0.2-0.2
		C135.2,270.8,136.4,270.9,136,271.5z M136.2,57.8c0-0.3,0-0.6,0-0.9c0.5-0.1,0.6,0.2,0.9,0.2C137,57.5,137,58,136.2,57.8z
		 M138.8,229.9C138.9,229.3,139.8,230.1,138.8,229.9L138.8,229.9z M145.9,290.1c0-0.5,0.6-0.5,1.2-0.5
		C147.2,290.6,146.5,290.3,145.9,290.1z M148.1,289.2c-0.1,0.3-0.4,0.4-0.5,0.7c-0.3-0.1-0.2-0.6-0.2-0.9c0.2,0,0.3,0,0.5,0
		C147.8,289.2,147.9,289.2,148.1,289.2z M146.7,17.9c-0.5,0-0.8-0.2-0.7-0.7C146.5,17.1,146.7,17.4,146.7,17.9z M146,244.4
		C146,243.7,146.9,244.6,146,244.4L146,244.4z M147.8,286c-0.2,1.5-1.7,0.5-2.1,1.6C145.1,286.8,146.9,285.5,147.8,286z
		 M145.5,262.4C145.4,262.4,145.6,262.6,145.5,262.4L145.5,262.4z M144.1,53.1c-0.5,0-0.8-0.2-0.7-0.7
		C143.9,52.4,144.1,52.6,144.1,53.1z M140,49.7c-1.5-1.5-4.6-1.7-3.8,1.1C132.1,49.2,138.4,45.7,140,49.7z M132.9,51.3
		c0.6-0.1,1,0.1,0.9,0.7C133.5,52.3,132.7,52.1,132.9,51.3z M130.5,57.2c-0.6,0.1-0.9,0-1.2-0.2C129.3,56.6,130.9,56.5,130.5,57.2z
		 M128.6,36.6c0.2,0.6-0.5,0.5-0.5,0.9C127.6,37.4,128,36.4,128.6,36.6z M127.2,24.9c0.1,0.6-0.1,1-0.7,0.9
		c-0.1-0.2-0.2-0.4-0.2-0.7C126.5,24.9,126.8,24.8,127.2,24.9z M125.6,38.9C125.6,38.2,126.6,39.1,125.6,38.9L125.6,38.9z M125.3,77
		c-0.7,1-1.2,2.1-0.7,3.6C121.1,80.6,122.3,74.5,125.3,77z M120.3,110.9C120.4,110.2,121.3,111.1,120.3,110.9L120.3,110.9z
		 M120.3,17.9c0,0.2,0,0.5,0,0.7c-0.5,0-0.8-0.2-0.7-0.7C119.9,17.9,120.1,17.9,120.3,17.9z M123.9,117c-0.2,0.3-0.8,0.3-1.2,0.5
		c-0.1,1,0.5,1.4,0.7,2c0.9,0.2,1.1-0.3,1.9-0.2c-1.2,0.8-0.1,1.4,0.2,2.5c-2.8-0.1-5-3.9-5.9-5.9C121,114.6,123.7,115.3,123.9,117z
		 M119.2,83.6c-0.7,0.8-1.8,1-1.2,2.5C114.4,85.7,117.2,80.8,119.2,83.6z M117,126.5c-0.3,0.5-0.5,1.2-1.4,1.1
		C114.9,126.7,116.1,125.9,117,126.5z M115.6,42.5c-0.6,0.1-0.9-0.1-0.7-0.7C115.4,41.8,115.6,42,115.6,42.5z M113.7,26.7
		c0.3-0.3,1.1-0.3,1.4,0c-0.2,0.3-0.4,0.7-0.7,0.9C113.8,27.6,113.6,27.3,113.7,26.7z M113.2,27.6c0.8-0.1,0.7,0.7,0.7,1.4
		c-0.3,0-0.6,0-0.9,0C112.8,28.2,113.4,28.3,113.2,27.6z M112.3,121.3C112.3,120.6,113.3,121.5,112.3,121.3L112.3,121.3z M112.3,133
		c0.5,0,0.8,0.2,0.7,0.7C112.4,133.9,112.1,133.6,112.3,133z M112.3,258.2c0,0.2,0,0.5,0,0.7c-0.6,0.6-0.4-0.3-1.2-0.2
		C111.1,258.1,111.7,258.1,112.3,258.2z M109.9,151.3c0.3,0,0.6,0,0.9,0C111,152.2,109.7,152.2,109.9,151.3z M110.1,79.7
		c-0.3,0.6-0.4,1.4-1.2,1.6C108.5,80.3,109.1,79.2,110.1,79.7z M108.5,136.4C108.5,135.8,109.5,136.6,108.5,136.4L108.5,136.4z
		 M107.8,126.3c0.4-0.1,0.4,0.2,0.7,0.2C108.6,126.9,107.4,126.8,107.8,126.3z M106.6,28c0.5-0.1,0.7,0,0.7,0.5c-0.2,0-0.5,0-0.7,0
		C106.6,28.3,106.6,28.2,106.6,28z M107.3,145c-0.1,0.3-0.3,0.5-0.7,0.5C106.5,145,106.9,145,107.3,145z M106.6,152
		c0.7,0,1.3,0,1.2,0.7C107.4,153.1,106.4,152.9,106.6,152z M105.4,17.9c0.4-0.1,0.4,0.2,0.7,0.2C106.2,18.5,105,18.4,105.4,17.9z
		 M104.7,21c0.5-0.1,0.9,0,1.2,0.2C106,21.8,104.3,22,104.7,21z M104.5,66.6c0.6,0,1.1,0,1.4,0.2c0,0.5-0.4,0.7-0.2,1.4
		c-0.4,0-0.8,0-1.2,0C104.7,67.4,104,67,104.5,66.6z M104.5,73c0.1,0.3-0.9,0.6-0.2,0.7c-0.5,0.8-0.7-0.6-0.9-0.7
		C103.3,72.4,104.3,72.8,104.5,73z M104.2,135.5c-0.1,0.5-0.6,0.6-0.5,1.4c-0.4-0.2-0.8-0.4-0.7-1.1
		C103.3,135.6,103.7,135.5,104.2,135.5z M101.4,55.1c0.1-0.9,0.7-1,1.4-0.7C102.9,55.2,101.9,55.6,101.4,55.1z M101.4,37.1
		c0.2,0,0.5,0,0.7,0c0.6,0.7-0.1,1.6,0,2.5C100.4,39.6,100.9,37.5,101.4,37.1z M101.4,162.4c-0.3,0.5-0.6,0.9-0.5,1.8
		C98.7,164.4,99.6,161.3,101.4,162.4z M100.2,33.7c-0.6,0-0.9-0.3-0.9-0.9C100,32.7,100.3,33,100.2,33.7z M100,190
		c-1,0.2-0.3,2.2-1.7,2c-0.3-0.4,0.1-1.4,0.2-2C99.4,190,99.2,190.2,100,190z M97.6,19.4c0.5-0.1,0.7,0,0.7,0.5c-0.2,0-0.5,0-0.7,0
		C97.6,19.7,97.6,19.6,97.6,19.4z M97.6,158.6C97.6,158.6,97.6,158.5,97.6,158.6C97.6,158.5,97.6,158.6,97.6,158.6
		C97.5,158.6,97.6,158.6,97.6,158.6z M97.3,23.3c-0.2,1.2-1.3,1.6-2.6,1.8C93.7,23.3,96,22.2,97.3,23.3z M94,75
		C94.4,74.2,94.8,75.7,94,75L94,75z M94,40.2c-0.4,0.6-1.7,1.3-2.6,0.7C91.5,39.7,93.2,39.5,94,40.2z M92.4,76.4
		c-0.1,0.6-1.9,0.9-0.9,1.8C89.1,79.1,90,74.7,92.4,76.4z M89.8,115.2C90.2,114.4,90.5,115.9,89.8,115.2L89.8,115.2z M88.6,197.9
		c0.5-0.1,0.7,0,0.7,0.5c-0.2,0-0.5,0-0.7,0C88.6,198.2,88.6,198,88.6,197.9z M87.1,102.8c-0.6-0.3-1.4-0.5-1.2-1.6
		c0.5-0.1,1.2-0.4,1.7,0C87.2,101.9,87.3,102.2,87.1,102.8z M86,91.9c0.7-0.2,0.9,0.2,1.4,0.2c-0.3,0.6-0.4,1.4-1.4,1.4
		C85.6,93.2,85.6,92.2,86,91.9z M85.2,149.5c0.2,1.2-1.2,1.4-1.2,0.2C84.6,149.8,84.6,149.3,85.2,149.5z M84.1,59.6
		c-0.8,0.2-0.7-0.4-1.2-0.5C83,57.6,85.3,58.6,84.1,59.6z M81.5,190.9c0.1,1-0.2,2.8,1.4,2.9C81.2,195.1,78.7,191,81.5,190.9z
		 M82.4,177.1c-0.9,0.1-1.1-0.5-1.2-1.1C82,175.9,82.6,176.1,82.4,177.1z M81.9,138.7c-0.4,0.5-1.3,2-0.2,2.5
		C80.3,142.1,79.3,137.9,81.9,138.7z M81,123.6c0.2,1.4-1.5,1.7-0.7,2.9C77.1,126.6,78.1,122.3,81,123.6z M78.1,75.7
		c-0.2-0.8,0.3-1,0.5-1.4c0.2,0.1,0.4,0.2,0.7,0.2C79.4,75.6,78.9,76.1,78.1,75.7z M76.9,42.3c0.7,0.2,1.7,0.2,1.7,1.1
		c-0.9-0.1-1,0.6-1.2,1.1C75.6,44.3,76.2,43.2,76.9,42.3z M75.3,102.3c0.5-0.4,0.3,0,0.9,0C76.4,103.2,75.1,103.2,75.3,102.3z
		 M73.2,67.8c0.6,0,1.1,0,1.7,0c0.6,0.9-0.6,0.7-0.5,1.8c-0.7,0.1-0.9-0.3-1.4-0.5C72.7,68.4,73.2,68.3,73.2,67.8z M72,34.1
		c-0.8,0.2-0.7-0.4-1.2-0.5C71,33.2,72.2,33.5,72,34.1z M72.4,120.2c-0.1,0.6-0.9,0.5-0.7,1.4c-0.7,0.2-0.6-0.3-1.2-0.2
		C70.2,120,71.6,119.6,72.4,120.2z M69.8,99.8c0.4-0.1,0.4,0.2,0.7,0.2C70.6,100.5,69.5,100.4,69.8,99.8z M69.1,163.8
		c-0.8-0.1-1-0.5-0.7-1.1C69.2,162.7,69.4,163.1,69.1,163.8z M68.6,114.3C68.1,115,67.7,113.5,68.6,114.3L68.6,114.3z M67.9,136.4
		C68,135.8,68.9,136.6,67.9,136.4L67.9,136.4z M68.2,157.4c0.7,0,0.6,1.1-0.2,0.9C67.8,157.9,68.1,157.7,68.2,157.4z M67,160.1
		c0.5-0.1,0.9,0,1.2,0.2C68.2,161,66.8,161,67,160.1z M13.2,174.6c-1.7,0.1-1.8-1.7,0.2-1.4C13.4,173.8,13,173.9,13.2,174.6z
		 M21.9,163.1c0.5-0.1,0.6,0.2,0.9,0.2C22.8,164,21.7,163.8,21.9,163.1z M31.4,132.4c-2.2,0.2-1.4-3.4,0.2-2.5
		C31.7,131.1,31,131.3,31.4,132.4z M33.5,153.8c-0.3-0.1-0.4-0.4-0.7-0.5c0-0.3,0.4-0.2,0.7-0.2C33.5,153.4,33.5,153.6,33.5,153.8z
		 M33.5,126.7C34.6,126.9,33.4,128.1,33.5,126.7L33.5,126.7z M34.7,139.6c0.5-0.1,0.5,0.3,0.5,0.7C34.9,140.2,34.7,140,34.7,139.6z
		 M37.6,173.5c-0.6,0.1-0.9-0.1-0.7-0.7c0.2,0,0.5,0,0.7,0C37.6,173,37.6,173.2,37.6,173.5z M43,122.4c0.2-0.2,0.5-0.2,0.9-0.2
		c0.1,0.7-0.3,1.1-0.9,1.1C43.4,122.9,43,123,43,122.4z M43.5,128.1c0.1-1,0.6-1.5,1.7-1.6c-0.1,0.8-0.6,1.4-0.9,2
		C43.7,128.6,43.9,128.1,43.5,128.1z M44.9,145.2c-0.4-0.1-0.5-0.4-0.5-0.9C45.2,144.1,44.9,144.8,44.9,145.2z M50.1,167.6
		c-0.2,0-0.3,0-0.5,0c0-0.2,0-0.5,0-0.7c0.4-0.1,0.4,0.2,0.7,0.2C50.3,167.3,50.1,167.4,50.1,167.6z M58.7,183.4
		c-0.6,0.1-0.9-0.1-0.7-0.7c0.2,0,0.5,0,0.7,0C58.7,183,58.7,183.2,58.7,183.4z M65.3,124c0.5,0.1,1.1,0.1,0.9,0.9
		C65.5,125,65.2,124.7,65.3,124z M65.6,178.9c0,0.2,0,0.3,0,0.5C64.4,179.6,65.1,178.1,65.6,178.9z M64.4,88.1
		C64.8,87.3,65.1,88.8,64.4,88.1L64.4,88.1z M63.9,50.8c0.2,0,0.3,0,0.5,0c0,0.1,0,0.3,0,0.5c-0.2,0-0.3,0-0.5,0
		C63.9,51.1,63.9,51,63.9,50.8z M63.9,166.5C64,165.8,64.9,166.7,63.9,166.5L63.9,166.5z M63.4,144.1c-0.2,0-0.5,0-0.7,0
		c0-0.2,0-0.3,0-0.5C63.2,143.6,63.5,143.7,63.4,144.1z M63,137.1c-0.2,0.6-0.9,1.3-1.7,0.7C61.6,137.3,62.3,136.5,63,137.1z
		 M61.1,94.2C60.5,94.9,60.1,93.4,61.1,94.2L61.1,94.2z M58.4,52.2C58.5,51.5,59.4,52.4,58.4,52.2L58.4,52.2z M57.3,90.6
		c0.9-0.2,0.8,1,0.5,1.4C57.2,91.8,56.8,91.1,57.3,90.6z M56.6,125.1c0.6-0.1,0.8,0.3,0.7,0.9c-0.6,0.1-1-0.1-0.9-0.7
		C56.5,125.4,56.5,125.3,56.6,125.1z M55.4,148.4C55.7,147.7,56,149.3,55.4,148.4L55.4,148.4z M54.9,149.8c0.5-0.1,0.6,0.2,0.9,0.2
		c-0.2,0.3-0.2,0.9-0.9,0.7C54.9,150.4,54.9,150.1,54.9,149.8z M53.7,150.2c0.2,0,0.3,0,0.5,0c0,0.2,0,0.5,0,0.7
		c-0.2-0.1-0.4-0.2-0.7-0.2C53.5,150.5,53.7,150.4,53.7,150.2z M53.7,157.7c-1.1,0.1,0.3,0.3-0.5,1.6
		C49.7,159.5,52.4,154.9,53.7,157.7z M53,152.5c0,0.2,0.1,0.2,0.2,0.2c0,0.2,0,0.3,0,0.5c-0.2,0-0.2,0.1-0.2,0.2c-0.2,0-0.3,0-0.5,0
		c0-0.2-0.1-0.2-0.2-0.2c0-0.2,0-0.3,0-0.5c0.2,0,0.2-0.1,0.2-0.2C52.7,152.5,52.8,152.5,53,152.5z M52,87.2
		C52.1,86.5,53,87.4,52,87.2L52,87.2z M51.8,124.7c1.2-1.2-0.5,1.6,0,0.2C51.8,124.9,51.8,124.7,51.8,124.7z M51.3,147.7
		C52.3,148,51.3,148.9,51.3,147.7L51.3,147.7z M50.1,54.2c0.9,0.1,0.7,1,0,0.5C50.1,54.5,50.1,54.4,50.1,54.2z M50.1,145.7
		c-0.1,0.2-0.2,0.4-0.2,0.7c-0.6,0.2-0.5-0.4-0.9-0.5C49,145.3,49.8,145.4,50.1,145.7z M48.7,56c0.5,0,0.8,0.2,0.7,0.7
		C48.8,56.8,48.6,56.6,48.7,56z M49.2,167.4c0,0.2,0,0.5,0,0.7c-0.5,0-0.8-0.2-0.7-0.7C48.7,167.4,49,167.4,49.2,167.4z M46.6,185.7
		c-0.4,0-0.8,0-1.2,0c-0.3-0.3-0.3-1.3,0-1.6c0.3,0,0.6,0,0.9,0C46.4,184.6,46.7,184.9,46.6,185.7z M42.8,89.9
		c0.4,0,0.9-0.1,0.9,0.2C44,90.9,42.3,90.7,42.8,89.9z M45.4,108.7c0.6,2.6-3.6,3.5-3.6,0.7C42.8,109,44.3,108.1,45.4,108.7z
		 M40.4,178.2C40.8,177.5,41,179.1,40.4,178.2L40.4,178.2z M37.6,136c0.6,0.6-0.5,0.5-0.2,1.4c-0.7,0-1-0.4-0.9-1.1
		C37,136.3,36.9,135.8,37.6,136z M36.2,111.8c-0.5,0-0.8-0.2-0.7-0.7c0.2,0,0.5,0,0.7,0C36.2,111.4,36.2,111.6,36.2,111.8z
		 M34.5,74.3c0.3,0,0.6,0,0.9,0C35.8,75.5,34.2,75.5,34.5,74.3z M34.3,82.2c0.1,1.2-0.8,1.5-0.5,2.9C31,85.5,31.5,80.7,34.3,82.2z
		 M34.7,122.2c-0.9,0.7-1.6,2.1-1.4,3.2c-1.1-0.8-1.2,0.2-2.4,0.5C30.9,124.4,32.2,121.2,34.7,122.2z M29.3,118.1
		c-0.1-0.7,0.6-1.2,1.2-0.7C30.3,117.9,30.1,118.3,29.3,118.1z M28.6,79.7c0.6-0.3,0.7-0.5,1.4-0.2c0.4,0.8-1,1-0.2,1.4
		C29.4,81.4,28.4,80.5,28.6,79.7z M28.1,141.2C28.7,140.3,28.4,141.9,28.1,141.2L28.1,141.2z M28.3,82.5c0,0.2,0,0.5,0,0.7
		c-0.5,0-0.8-0.2-0.7-0.7C27.9,82.5,28.1,82.5,28.3,82.5z M26,89.2c0.7-0.1,0.8,0.5,0.7,1.1C26,90.4,25.5,89.7,26,89.2z M23.6,126.7
		c-0.2,0.9,0.1,0.8,0.7,1.8c-1.3-0.4-1.7-1.2-3.1-0.5C21.2,126.9,22.6,126.9,23.6,126.7z M17.4,182.1c0.7-0.3,0.7,1,0,0.7
		C17.4,182.5,17.4,182.3,17.4,182.1z M14.8,168.3c0.7-0.2,0.5-0.2,1.2,0C16.2,169.2,14.6,169.2,14.8,168.3z M15,143.7
		c0.4-0.1,0.4,0.2,0.7,0.2C15.9,144.3,14.7,144.2,15,143.7z M14.8,130.3C15.6,129.8,14.2,131.1,14.8,130.3L14.8,130.3z M14.1,166.5
		c0.6,0.1,1.2,0.2,1.2,0.9C14.7,167.9,14,167.3,14.1,166.5z M13.6,169.9c-0.5,0.1-0.6-0.2-0.9-0.2C12.6,169.2,14,169.2,13.6,169.9z
		 M13.2,151.6C12.5,155.4,10,150,13.2,151.6L13.2,151.6z"/>
	<g>
		<polygon fill="#FFFFFF" points="99.7,118 99.7,53.5 184.3,53.5 201,70.3 201,163.5 201,191.9 201,197.2 183.5,197.2 		"/>
		<polygon fill="#FFFFFF" points="99.7,154.4 99.7,197.2 166,197.2 132.9,154.4 102.1,123.7 		"/>
		<g>
			<path fill="#FFC426" stroke="#FFFFFF" stroke-miterlimit="10" d="M215.8,246.1l-24.7-8L79.8,126.7c0,0,4.5-12.2,16.7-16.7
				l111.3,111.3L215.8,246.1z"/>
			<path fill="#FFC426" stroke="#FFFFFF" stroke-miterlimit="10" d="M191.5,239.1c0,0,3.8-13.8,17.2-17.2"/>
			<line fill="#FFC426" stroke="#FFFFFF" stroke-miterlimit="10" x1="208.2" y1="243.6" x2="213.3" y2="238.5"/>
			<line fill="#FFC426" stroke="#FFFFFF" stroke-miterlimit="10" x1="195.3" y1="230.8" x2="84.3" y2="119.7"/>
			<line fill="#FFC426" stroke="#FFFFFF" stroke-miterlimit="10" x1="90.3" y1="113.3" x2="201.6" y2="224.5"/>
			<path fill="#FFFFFF" stroke="#FFFFFF" stroke-miterlimit="10" d="M78.2,125.7l-11-11c0,0,1.5-13,17.2-17.2l12.3,12.3
				C96.7,109.8,89.7,107.6,78.2,125.7z"/>
		</g>
		<line fill="none" stroke="#FFC426" stroke-width="2" stroke-miterlimit="10" x1="110.9" y1="71.2" x2="172.4" y2="71.2"/>
		<line fill="none" stroke="#FFC426" stroke-width="2" stroke-miterlimit="10" x1="120.4" y1="84.2" x2="184.3" y2="84.2"/>
		<line fill="none" stroke="#FFC426" stroke-width="2" stroke-miterlimit="10" x1="110.9" y1="97.5" x2="172.4" y2="97.5"/>
		<line fill="none" stroke="#FFC426" stroke-width="2" stroke-miterlimit="10" x1="120.4" y1="113.3" x2="184.3" y2="113.3"/>
		<line fill="none" stroke="#FFC426" stroke-width="2" stroke-miterlimit="10" x1="139.8" y1="125.7" x2="172.4" y2="125.7"/>
		<line fill="none" stroke="#FFC426" stroke-width="2" stroke-miterlimit="10" x1="147.8" y1="138.7" x2="184.3" y2="138.7"/>
		<polygon fill="#FFC426" points="184.7,58.8 195.6,69.7 184.7,69.2 		"/>
	</g>
</g>
</svg>
