<?xml version="1.0" encoding="utf-8"?>
<!-- Generator: Adobe Illustrator 17.1.0, SVG Export Plug-In . SVG Version: 6.00 Build 0)  -->
<!DOCTYPE svg PUBLIC "-//W3C//DTD SVG 1.1//EN" "http://www.w3.org/Graphics/SVG/1.1/DTD/svg11.dtd">
<svg version="1.1" id="Layer_1" xmlns="http://www.w3.org/2000/svg" xmlns:xlink="http://www.w3.org/1999/xlink" x="0px" y="0px"
	 viewBox="0 0 300 300" enable-background="new 0 0 300 300" xml:space="preserve">
<g>
	<path fill="#E98B22" d="M21.9,93.1c-8.2,17.8-12.7,37.7-12.7,58.6c0,62.5,40.7,115.4,97,133.9c0.1-0.4,0.6,0,0.3,0.1
		c13.7,4.4,28.3,6.9,43.5,6.9c6,0,11.9-0.4,17.6-1.1c-0.2-1.1-0.5-2.2-0.5-3.3c1.4-2,4-6.5,7.3-3.6c-0.8,1.7-2,2.5-3.5,4.7
		c1.3,1.6,2,0.1,3.1-0.7c0.3,0.3,0.2,0.8,0.2,1.4c-0.4,0.2-0.7,0.4-1,0.7c6.1-1,12.1-2.4,17.9-4.2c-0.2-0.9-1.2-0.1-1.3-1.2
		c1.1-0.1,1.9,0.3,2.2,0.9c37.3-11.7,67.9-38.4,84.7-73.1c0,0,0-0.1,0-0.1c0,0,0,0,0,0c9-18.5,14-39.3,14-61.2
		c0-77.8-63-140.8-140.8-140.8c-56.8,0-105.7,33.6-128,82.1c0,0,0,0,0.1,0C22,93,22,93,21.9,93.1z M250.4,247.2
		C250.5,247.4,250.3,247.1,250.4,247.2L250.4,247.2z M262,174.3C262.4,173.5,262.7,175,262,174.3L262,174.3z M266.5,225.5
		C266.5,224.9,267.4,225.7,266.5,225.5L266.5,225.5z M277.9,195.7c-0.1-0.6,0.3-0.7,0.9-0.7C278.9,195.6,278.5,195.8,277.9,195.7z
		 M280.8,177.4c0.5-0.1,0.8,0,1.1,0.2C281.7,178.5,280.8,178.4,280.8,177.4z M281.9,158.2C281.5,159.1,280.6,158.1,281.9,158.2
		L281.9,158.2z M281.9,196.9c0.4-0.1,0.4,0.2,0.7,0.2C282.6,197.5,281.5,197.4,281.9,196.9z M284.5,173.6c-0.1,0-0.3,0-0.4,0
		c0-0.2,0-0.3,0-0.5c0.1,0,0.3,0,0.4,0C284.5,173.3,284.5,173.4,284.5,173.6z M285.6,186C285.5,185.9,285.8,186.2,285.6,186
		L285.6,186z M289.6,164.3C289.7,164.5,289.5,164.2,289.6,164.3L289.6,164.3z M290,146.7C289.5,147.5,289,146.1,290,146.7L290,146.7
		z M288.9,146C289,146.1,289,146.1,288.9,146c0.3,0.2,0.3,0.2,0.4,0.2C289.2,146.2,289.1,146.2,288.9,146
		C288.8,146,288.6,145.8,288.9,146z M286.1,184.9C286.1,184.2,287,185.1,286.1,184.9L286.1,184.9z M285.6,161.6
		C285.5,161.5,285.8,161.8,285.6,161.6L285.6,161.6z M285.6,121.9c-0.7,0.4-1.6,1.4-2.4,0.9C283.3,121.3,284.7,122.3,285.6,121.9z
		 M282.7,185.8c-0.1,0.2-0.5,0.2-0.4,0.7C281.4,186.3,282.2,185.1,282.7,185.8z M282.1,145.8c0,0.8-0.9,0.7-1.1,1.4
		C278.6,146.8,281,143.8,282.1,145.8z M281.4,130.7c0.1,1.1-1.1,0.9-1.5,1.4C280,131.2,280.5,130.7,281.4,130.7z M279.9,184
		c-0.4,0-0.5,0.3-0.9,0.2c-0.2-0.2-0.2-0.5-0.2-0.9C279.4,183.3,280,183.3,279.9,184z M278.8,181.5c0.1-0.3,0.6-0.2,0.9-0.2
		C279.6,181.8,279.1,181.8,278.8,181.5z M278.8,151.7c0.4-0.1,0.4,0.2,0.7,0.2C279.5,152.3,278.4,152.2,278.8,151.7z M278.8,113.1
		c0.1,0.6-0.1,1-0.7,0.9c-0.1-0.2-0.2-0.4-0.2-0.7C278.1,113.1,278.4,113,278.8,113.1z M277.9,187.1c0,0.2,0,0.5,0,0.7
		c-0.3-0.1-0.3-0.4-0.7-0.5C277.3,187.1,277.6,187.2,277.9,187.1z M276.6,207.7C276.6,207,277.5,207.9,276.6,207.7L276.6,207.7z
		 M276.4,191.9C276.4,191.9,276.4,191.9,276.4,191.9C276.4,191.9,276.4,191.9,276.4,191.9C276.4,191.9,276.4,191.9,276.4,191.9
		C276.3,191.9,276.3,191.8,276.4,191.9z M275.7,170.7C275.7,170,276.6,170.9,275.7,170.7L275.7,170.7z M275.3,95.7
		c-0.5,0.1-0.8,0-1.1-0.2C274.2,94.8,275.5,94.8,275.3,95.7z M275,171.8c0.2,0.6-0.4,0.5-0.4,0.9c-0.3-0.1-0.4-0.5-0.4-0.9
		C274.5,171.8,274.7,171.8,275,171.8z M271.5,179.7C271.8,178.9,272.1,180.6,271.5,179.7L271.5,179.7z M270.2,91.2
		C270.3,91.3,270.1,91.1,270.2,91.2L270.2,91.2z M271.5,120.5c0.4,0.4,0,0.3,0,0.9c-0.3,0.3-1,0.2-1.5,0.2
		C270.5,121.3,270.6,120.4,271.5,120.5z M266.9,180.1c-0.1,0.2-0.2,0.4-0.2,0.7c-0.3-0.1-0.5-0.3-0.4-0.7
		C266.5,180.1,266.7,180.1,266.9,180.1z M266.5,216.5c-0.1,0-0.3,0-0.4,0c0-0.2-0.1-0.2-0.2-0.2
		C265.7,215.8,266.8,215.9,266.5,216.5z M263.8,160.3c0.1,0,0.3,0,0.4,0c0,0.2,0,0.3,0,0.5c-0.1,0-0.3,0-0.4,0
		C263.8,160.6,263.8,160.4,263.8,160.3z M263.6,170.9c-0.5,0.7-1.2,0.8-0.7,2C260.6,173,262,169,263.6,170.9z M259.4,183.5
		C259.7,182.8,260,184.4,259.4,183.5L259.4,183.5z M257.4,229.6c-0.2,0-0.2-0.2-0.4-0.2C257.1,228.8,258,229.2,257.4,229.6z
		 M257.4,164.3c-0.1,0.4-0.7,0.2-0.4,0.9c-0.5,0.1-0.6-0.2-0.9-0.2C256.2,164.4,256.8,163.7,257.4,164.3z M257.2,168.6
		c-0.1,0.8-1.1,0.8-0.2,1.6c-0.5,0.7-0.9-0.7-0.9-1.4C256.4,168.7,256.7,168.5,257.2,168.6z M256.5,200.9c-0.1,0-0.3,0-0.4,0
		c0-0.2-0.1-0.2-0.2-0.2C255.8,200.3,256.9,200.4,256.5,200.9z M253.7,213.6c0.1,0,0.3,0,0.4,0c0,0.2,0,0.3,0,0.5
		c-0.1,0-0.3,0-0.4,0C253.7,213.9,253.7,213.7,253.7,213.6z M251,166.1c0,0.7-0.4,1.1-1.1,1.1C249.4,166.7,250,165.8,251,166.1z
		 M249.7,161.2c0.1,0,0.3,0,0.4,0c0,0.1,0,0.3,0,0.5c-0.1,0-0.3,0-0.4,0C249.7,161.5,249.7,161.3,249.7,161.2z M201.3,255.8
		c-1.2,0.1-0.7-0.6-0.7-1.4c0.4,0,0.5,0.3,0.9,0.2C201.3,254.9,201.2,255.3,201.3,255.8z M207.4,211.8c0-0.3,0-0.6,0-0.9
		C208.5,210.7,208.6,212,207.4,211.8z M216,253.1C215.9,253,216.2,253.2,216,253.1L216,253.1z M216.5,219.7
		c-2.1,2.2-2.8-4.1,0.2-2.7C216,217.6,214.4,219.4,216.5,219.7z M225.1,233.2c-0.1,0-0.3,0-0.4,0c0-0.2-0.1-0.2-0.2-0.2
		C224.3,232.5,225.4,232.7,225.1,233.2z M227.7,188.9c-0.8,0.2-0.8-1-0.4-1.4c0.2,0,0.4,0,0.7,0
		C228.1,188.3,227.5,188.3,227.7,188.9z M229.9,190.8C230,190.9,229.8,190.7,229.9,190.8L229.9,190.8z M249.1,247.2
		C249.1,246.5,250,247.4,249.1,247.2L249.1,247.2z M247.7,187.8C247.6,187.7,247.9,188,247.7,187.8L247.7,187.8z M246.6,173.6
		C246.7,172.9,247.6,173.8,246.6,173.6L246.6,173.6z M246.4,164.8C246.6,164.9,246.3,164.7,246.4,164.8L246.4,164.8z M246.4,181.5
		c0,0.3,0,0.6,0,0.9C245.4,182.6,245.3,181.2,246.4,181.5z M245.1,163.4C245,163.3,245.2,163.6,245.1,163.4L245.1,163.4z M245.5,238
		C245,238.7,244.6,237.2,245.5,238L245.5,238z M244.4,189.6c0.1,0.7-0.6,0.8-0.9,0.5C243.6,189.7,243.9,189.6,244.4,189.6z
		 M242.7,181.3c0.4-0.1,0.4,0.2,0.7,0.2c0,0.2-0.2,0.2-0.2,0.5c-0.1,0-0.3,0-0.4,0C242.7,181.7,242.7,181.5,242.7,181.3z
		 M241.6,61.6c-0.6,0.1-0.9-0.1-0.9-0.7C241.3,60.8,241.6,61,241.6,61.6z M240.7,58c0.2,0,0.4,0,0.7,0c0.1,0.5-0.2,0.6-0.2,0.9
		C240.7,58.8,240.6,58.5,240.7,58z M240.3,165.2c0.1,0,0.3,0,0.4,0c0,0.1,0,0.3,0,0.5c-0.1,0-0.3,0-0.4,0
		C240.3,165.5,240.3,165.4,240.3,165.2z M237.8,172.9c0.6,0,1.3-0.1,1.5,0.2c0.3,0.7-0.7,0.2-0.4,0.9
		C238.3,173.9,237.7,173.8,237.8,172.9z M237,196.4c-0.5,0-0.7-0.2-0.7-0.7C236.5,196,237.1,195.8,237,196.4z M235.2,202.7
		c0.6-0.3,0.6,1,0,0.7C235.2,203.2,235.2,202.9,235.2,202.7z M234.5,164.1C235.1,163.2,234.8,164.9,234.5,164.1L234.5,164.1z
		 M233,64.7C233,64.1,233.9,64.9,233,64.7L233,64.7z M231.2,195.3c0.1,0,0.3,0,0.4,0c0,0.2,0,0.3,0,0.5c-0.1,0-0.3,0-0.4,0
		C231.2,195.6,231.2,195.4,231.2,195.3z M230.8,51.6C231.2,50.8,231.5,52.4,230.8,51.6L230.8,51.6z M229.5,65.6
		C230.1,64.8,230.2,66.3,229.5,65.6L229.5,65.6z M230.3,168.8c-0.5-0.2-1.2-0.3-2-0.2c-0.4,1-0.2,2.4,1.8,2
		c-0.6,0.6,0.3,0.7,0.2,1.4c-0.6,0.6-0.9-0.8-1.5-0.9c-0.6,0.1,0.3,0.4,0,0.9C224.3,170.7,227.7,164,230.3,168.8z M229,39.2
		c-0.7,0-2.2,1.1-2.4,2.3C225.9,40.1,227.3,38.9,229,39.2z M225.3,221.7c0,0.6-1,0.5-1.3,0.2c0.3,0.4-0.9,1.8,0.7,2.3
		C222.1,225.1,222.8,220.2,225.3,221.7z M223.1,52.1C222,53.5,221.7,50.6,223.1,52.1L223.1,52.1z M222,213.1
		C222.3,212.4,222.5,214,222,213.1L222,213.1z M222.2,213.8c0.1,0.7-1.2,1-1.5,0.5C220.6,213.5,221.8,213.4,222.2,213.8z
		 M219.6,211.1c0.1,0,0.3,0,0.4,0c0,0.2,0,0.3,0,0.5c-0.1,0-0.3,0-0.4,0C219.6,211.4,219.6,211.2,219.6,211.1z M219.6,218.3
		c0.6-0.2,0.6,0.3,1.1,0.2c-0.2,0.8-0.2,1.7-1.3,1.6C218.9,219.6,219.4,218.8,219.6,218.3z M217.8,63.6c0,0.2,0,0.5,0,0.7
		c-0.2,0-0.4,0-0.7,0C217.1,63.8,217.3,63.6,217.8,63.6z M217.1,188c0.3,0,0.6,0,0.9,0c0.2,0.7-0.5,0.4-0.9,0.5
		C217.1,188.3,217.1,188.2,217.1,188z M216.9,163.2C216.8,163.1,217.1,163.3,216.9,163.2L216.9,163.2z M216.5,193.2
		C216.5,192.6,217.4,193.5,216.5,193.2L216.5,193.2z M215.2,202.7c-0.7-0.2-0.3-0.6-0.2-1.1c0.3,0,0.6,0,0.9,0
		C215.7,202.1,215,202,215.2,202.7z M215.4,184.9c0.1,0.5-0.4,0.5-0.2,1.1c-0.7,0-0.8-0.6-0.9-1.1
		C214.6,184.6,215.1,184.6,215.4,184.9z M212.1,186.7c-0.5,0-0.7-0.2-0.7-0.7C211.9,186,212.1,186.2,212.1,186.7z M211.8,63.4
		c0,0.2,0,0.3,0,0.5C210.8,64.1,211.4,62.6,211.8,63.4z M211.8,234.6c-0.2,0.7-0.7-0.1-1.1,0C210.9,233.8,211.5,234.3,211.8,234.6z
		 M209.2,187.4C207.7,187.6,209.3,185.9,209.2,187.4L209.2,187.4z M209,165.2c-0.5,0.7-1.1-0.5-0.7,0.7c-0.8,0-1.2-0.3-1.1-1.1
		C207.9,164.2,208.6,164.9,209,165.2z M207.7,198.7c-0.5,0-0.7-0.2-0.7-0.7C207.5,197.9,207.7,198.2,207.7,198.7z M204.1,213.8
		c1.3-0.2,1.9-0.2,3.1-0.7c0.1,0.5,0,0.9-0.2,1.1c-1.1-0.4-0.8,0.1-1.5,0.5c0.1,0.2,0.5,0.2,0.4,0.7c-1-0.4-1.3,0.7-1.8,0.2
		C204.3,214.7,204.2,214.8,204.1,213.8z M203,177.9c-0.1,0.9-0.1,0.7,0,1.6c-0.5-0.3-1-0.6-0.9-1.6
		C202.5,177.9,202.7,177.9,203,177.9z M202.2,205.9C202.5,205.1,202.8,206.6,202.2,205.9L202.2,205.9z M201.1,57.7
		c0.1,0,0.3,0,0.4,0c0,0.2,0,0.3,0,0.5c-0.1,0-0.3,0-0.4,0C201.1,58,201.1,57.9,201.1,57.7z M202.2,240c0,1.2-0.9,1.7-1.3,2.5
		c0.1,0.9,0.7,1.2,1.3,1.6C199.1,245.1,199.3,239.1,202.2,240z M198.4,51.2c-0.3,0-0.6,0-0.9,0C197.4,50.3,198.6,50.3,198.4,51.2z
		 M193.8,25C192.3,25.2,193.9,23.5,193.8,25L193.8,25z M174.6,284.9C174.8,285.1,174.5,284.8,174.6,284.9L174.6,284.9z M187.8,27
		c-0.6,0.1-0.9-0.1-0.9-0.7C187.5,26.3,188.1,26.3,187.8,27z M187.8,31.8c-0.1,0.5-0.3,1.1-0.9,1.1c-0.2-0.2-0.2-0.5-0.2-0.9
		C187,31.8,187.3,31.7,187.8,31.8z M187.2,43.7C185.3,42.8,187.8,41.6,187.2,43.7L187.2,43.7z M186.7,53.2c-0.6,0.1-0.9-0.1-0.9-0.7
		C186.4,52.5,186.8,52.6,186.7,53.2z M184.8,39c1-0.2,0.6,1,0.7,1.8C184.2,41,184.1,39.5,184.8,39z M183,17.1
		c0.2,0.1,0.4,0.2,0.7,0.2c-0.1,1-0.7,1.4-0.4,2.7C182.3,19.7,182,17.5,183,17.1z M182.6,23.9c0.8-0.2,0.9,0.3,1.3,0.5
		c-0.7,0.1-0.4,1.4-1.3,1.4C182.2,25.3,182.2,24.2,182.6,23.9z M182.1,33.3c0.5-0.1,0.8,0,1.1,0.2c-0.4,0.3-0.3,1.1-1.1,0.9
		C182.1,34.1,182.1,33.7,182.1,33.3z M179.5,254.4C179.7,253.8,180.7,254.7,179.5,254.4L179.5,254.4z M177.9,248.6
		C178.3,247.8,178.6,249.3,177.9,248.6L177.9,248.6z M177.9,51.9c-0.3-0.1-0.3-0.4-0.7-0.5C177.4,50.8,178.1,51.4,177.9,51.9z
		 M176.6,228.5c0.6-0.1,0.7,0.3,0.7,0.9C176.5,229.6,176.6,229.1,176.6,228.5z M174.4,37.9C174.7,37.2,175.6,38.1,174.4,37.9
		L174.4,37.9z M174.6,270.5c0.7,0.2,0.1,0.4,0.2,1.1c-0.6,0.1-0.6-0.5-0.7-0.9C174.5,270.7,174.6,270.7,174.6,270.5z M173.3,233
		C173.2,232.9,173.5,233.1,173.3,233L173.3,233z M170.2,27.2c0.4,0,0.5,0.3,0.9,0.2c-0.1,0.7-0.5,1-1.1,1.1
		C169.9,27.9,170.2,27.8,170.2,27.2z M170,38.3c0.5,0.1,0.5,0.6,0.2,0.9C169.7,39.2,169.7,38.6,170,38.3z M170.2,227.1
		c0,0.2,0,0.3,0,0.5C169.2,227.8,169.8,226.4,170.2,227.1z M169.1,244.3C169.2,243.6,170,244.5,169.1,244.3L169.1,244.3z
		 M168.5,231.6c0.5-0.1,0.6,0.2,0.9,0.2C169.3,232.5,168.3,232.4,168.5,231.6z M56.6,172.2c0.5-0.1,0.8,0,1.1,0.2
		C57.7,173.1,56.4,173.1,56.6,172.2z M57.5,170.4c-0.1-0.5,0.2-0.6,0.2-0.9C58.4,169.6,58.3,170.6,57.5,170.4z M57.5,148.5
		C57.5,147.8,58.4,148.7,57.5,148.5L57.5,148.5z M60.1,158.5c-1.8-0.5,0.3-1.2-0.2-2.9c0.5-0.1,1.3-0.4,1.8,0
		C60.6,155.9,61,157.8,60.1,158.5z M65.2,162.7c-0.7-0.1-0.7-2.3,0.4-1.8C65.8,161.9,64.9,161.7,65.2,162.7z M65.7,83.9
		C65,83.2,66.3,84.5,65.7,83.9L65.7,83.9z M65.9,117.8C66.5,117,66.6,118.5,65.9,117.8L65.9,117.8z M70.7,214
		c-1.7,1-1.3,2.5,0.2,3.4C68,217.4,66.7,213.1,70.7,214z M67.4,188.3c0.2-0.5,0.2-1.2,0.4-1.6c1,0.3,0.9,1.3,0.4,2
		C68,188.6,67.7,188.4,67.4,188.3z M78.9,161.6c0.4-0.1,0.4,0.2,0.7,0.2C79.6,162.3,78.5,162.2,78.9,161.6z M79.5,139.7
		c-1.4,0.1-0.7-1.9,0.2-1.1C79.9,139.2,79.4,139.2,79.5,139.7z M82.4,222.6c0.3,0.1,0.5,0.3,0.4,0.7
		C82.2,223.3,82.1,222.9,82.4,222.6z M81.7,165.2c-0.1-0.4,1.2-0.4,0.9,0.2C82.1,165.6,82,165.3,81.7,165.2z M81.7,147.4
		c-4.4,0.4,0.2-5.3,1.1-0.7C81.5,145.9,82,147.4,81.7,147.4z M80.2,84.8c0-0.2,0-0.3,0-0.5c0.1,0,0.3,0,0.4,0c0,0.2,0,0.3,0,0.5
		C80.5,84.8,80.3,84.8,80.2,84.8z M82.2,102.4c-2,0.2-1-3.9,0.7-2.5C82.9,101.1,82,101.2,82.2,102.4z M81.5,133.4
		c0.3-0.6,1.3-0.6,1.3-1.6c0.3-0.3,1-0.3,1.3,0C84.1,133.1,82.6,134,81.5,133.4z M84.1,91.2c0.5,0,0.7,0.2,0.7,0.7
		C84.2,92,84,91.7,84.1,91.2z M83.7,210c0.3,0,0.6,0,0.9,0c-0.9,1.1,0.5,1.9,0.4,3.4C83.5,213.2,83.9,210.8,83.7,210z M89,167.7
		c0.1-0.5,0.6-0.5,0.9-0.2C89.8,168,89.3,168,89,167.7z M89.9,158.9c-0.1,0-0.3,0-0.4,0c0-0.2,0-0.3,0-0.5c0.1,0,0.3,0,0.4,0
		C89.9,158.6,89.9,158.8,89.9,158.9z M91.6,150.8c-0.3,0.3,0,1.2-0.9,0.9C90.6,151,90.9,150.7,91.6,150.8z M91.4,230.7
		C91.7,230,92,231.6,91.4,230.7L91.4,230.7z M91,156.4c0-0.8,0.3-0.6,0.9-0.5C91.8,156.8,91.5,156.5,91,156.4z M92.1,181
		c0.4-0.1,0.4,0.2,0.7,0.2C92.8,181.7,91.7,181.6,92.1,181z M93.8,203.9C94.2,203.1,94.4,204.7,93.8,203.9L93.8,203.9z M95.6,174.7
		c-0.1,0-0.3,0-0.4,0c0-0.2,0-0.3,0-0.5c0.1,0,0.3,0,0.4,0C95.6,174.4,95.6,174.6,95.6,174.7z M95.6,158.7c-0.3-0.2-0.9-0.2-0.7-0.9
		c0.3,0,0.6,0,0.9,0C95.9,158.3,95.7,158.4,95.6,158.7z M95.2,156.2c0-0.6,0.7-0.1,0.9,0C96,156.8,95.3,156.3,95.2,156.2z
		 M99.3,160.9c-0.1,0-0.3,0-0.4,0c0-0.2-0.1-0.2-0.2-0.2C98.6,160.3,99.7,160.4,99.3,160.9z M99.6,157.6c-0.7,0.3-0.5-0.4-0.9-0.5
		c0.1-0.3,0.6-0.2,0.9-0.2C99.6,157.1,99.6,157.3,99.6,157.6z M101.3,136.1c-0.8,0.1-1.2-0.8-0.7-1.4
		C101.9,134.8,101.7,135.4,101.3,136.1z M101.1,150.3C101.1,149.7,102,150.5,101.1,150.3L101.1,150.3z M100.4,154.6
		c-0.2-0.2-0.8-0.1-0.7-0.7C100.4,153.8,100.6,154,100.4,154.6z M101.8,163c-1.1-0.3-1.3,0.4-1.5,0.9
		C98.5,163.1,101.6,161.2,101.8,163z M102,210.6c-0.6,0.1-0.7-0.3-0.7-0.9C101.6,209.9,102.2,209.9,102,210.6z M101.8,180.4
		c-1-0.1-1,0-1.8-0.5c-0.4-1.9,1.3-3.5,2.6-2.3C102.5,178.8,101.2,179,101.8,180.4z M103.3,268.4c-0.1,0-0.3,0-0.4,0
		c0-0.2,0-0.3,0-0.5c0.1,0,0.3,0,0.4,0C103.3,268.1,103.3,268.3,103.3,268.4z M102.2,170.2c0.2-0.8,0.4-0.1,1.1-0.2
		C103.3,171,102.5,170.6,102.2,170.2z M102.6,140.4C103,139.6,103.2,141.3,102.6,140.4L102.6,140.4z M103.1,150.3
		C103.4,149.6,103.6,151.2,103.1,150.3L103.1,150.3z M103.1,144.5C103.1,143.8,104,144.7,103.1,144.5L103.1,144.5z M104,107.2
		c-0.5,0.1-0.6-0.2-0.9-0.2C103,106.6,104.3,106.6,104,107.2z M104.2,139.3c0,0.2-0.2,0.2-0.2,0.5c-0.2,0-0.2-0.2-0.4-0.2
		c0-0.2,0.2-0.2,0.2-0.5C103.9,139.1,104,139.3,104.2,139.3z M103.5,146.5c0.3,0,0.6,0,0.9,0c0,0.4,0,0.8,0,1.1
		C103.6,147.8,103.5,147.1,103.5,146.5z M104.2,153.7C104.7,152.8,104.5,154.5,104.2,153.7L104.2,153.7z M107.7,136.3
		c-0.8,0.1-1.2-0.8-0.7-1.4c0.4,0,0.5,0.3,0.9,0.2C108,135.7,107.5,135.7,107.7,136.3z M109.7,149.9
		C110.4,149,110.4,150.6,109.7,149.9L109.7,149.9z M112.3,246.1c-0.1,0-0.3,0-0.4,0c0-0.2,0-0.3,0-0.5c0.1,0,0.3,0,0.4,0
		C112.3,245.8,112.3,245.9,112.3,246.1z M118.1,75.6C118.4,74.8,118.7,76.3,118.1,75.6L118.1,75.6z M120,288.8
		C120.2,288.9,119.9,288.7,120,288.8L120,288.8z M120.7,283.6c-0.1,0-0.3,0-0.4,0c0-0.2-0.1-0.2-0.2-0.2
		C119.9,282.9,121,283,120.7,283.6z M120.9,69.9c0-0.3,0-0.6,0-0.9c0.5-0.1,0.6,0.2,0.9,0.2C121.6,69.6,121.6,70.1,120.9,69.9z
		 M123.3,242C123.4,241.3,124.3,242.2,123.3,242L123.3,242z M133,284C132.9,283.9,133.2,284.2,133,284L133,284z M142.3,66.3
		c-2.4-0.4-0.3-4,1.3-2C143.1,64.9,141.6,65.1,142.3,66.3z M148.9,262.3C149,262.5,148.8,262.2,148.9,262.3L148.9,262.3z M152,244.7
		C152.5,243.8,152.3,245.5,152,244.7L152,244.7z M166.1,60c-0.1,0-0.3,0-0.4,0c0-0.2-0.1-0.2-0.2-0.2
		C165.3,59.3,166.4,59.4,166.1,60z M162.8,226.4c0.1,0.5-0.3,0.4-0.7,0.5C162.2,226.6,162.4,226.4,162.8,226.4z M159,249
		C159.1,248.3,159.9,249.2,159,249L159,249z M157.9,255.6C159,254.7,158.8,256.7,157.9,255.6L157.9,255.6z M156.8,48.5
		C157.2,47.7,157.5,49.2,156.8,48.5L156.8,48.5z M157.7,238.6c-0.2,0.7-0.7,1-0.2,1.8c-1.2,0.5-2.2-0.6-2.4-1.8
		C155.8,238.5,157,238.1,157.7,238.6z M154.8,63.4c-0.4-0.3-0.7-1.2,0.2-1.1C155.2,62.9,154.7,62.8,154.8,63.4z M155,43.3
		c-0.5,0.6-0.8,1.5-1.8,1.6C152.9,43.4,154.1,42.7,155,43.3z M154.2,27.5c0.1,0.7-0.2,1-0.9,0.9C152.8,27.5,153.3,27,154.2,27.5z
		 M153.1,283.6c-0.7,0-1.1-0.9-0.7-1.4C153.2,282.1,153.1,282.9,153.1,283.6z M152.6,70.2c0,0.9-0.5,1.2-0.9,1.8
		C150.4,71.8,151.4,69,152.6,70.2z M149.8,277c0.8-0.2,0.8,1.1,0,0.9C149.8,277.3,149.4,277.5,149.8,277z M148.2,18.7
		c0.8,0.1,0.9,0.5,0.7,1.1C148,20,147.8,19.1,148.2,18.7z M144.3,28.4c-0.3,0.5-0.9,0.5-1.1,0C143.2,27.8,144.1,28.2,144.3,28.4z
		 M143.2,37C143.2,37,143.2,37,143.2,37C143.2,37,143.2,37,143.2,37z M142.3,45.3c0.5-0.1,0.8,0,1.1,0.2c0.2,0.5-0.8,1-0.2,1.1
		C142.4,47.6,141.6,45.9,142.3,45.3z M140.7,49.8c0.4-0.4,1-0.1,1.5,0c-0.1,0.7-1.1,1.1-1.5,0.7C140.7,50.3,140.7,50.1,140.7,49.8z
		 M139,23c0.6-0.2,0.6,0.3,1.1,0.2C140.2,24.2,138.6,24,139,23z M138.1,65.9c1.1-1.2-0.5,1.6,0,0.2C138.1,66,138.1,65.9,138.1,65.9z
		 M138.7,273.4c-0.1,0.5-0.6,0.5-0.9,0.2C137.9,273.1,138.5,273.1,138.7,273.4z M137.6,273.9c0.5,0.1,0.1,1.1-0.4,0.9
		C137,274.1,137.6,274.2,137.6,273.9z M137.2,233.9c-0.1,0-0.3,0-0.4,0c0-0.2-0.1-0.2-0.2-0.2C136.5,233.2,137.6,233.3,137.2,233.9z
		 M137.2,25.9c-0.4,0.7-1.8,1.8-1.8,0C136.2,25.5,136.3,25.9,137.2,25.9z M135.2,236.4C135.3,235.7,136.1,236.6,135.2,236.4
		L135.2,236.4z M132.6,56.6c0.3,0,0.6,0,0.9,0c0,0.6-0.9,0.3-0.9,0.9C132,57.5,132.9,57.1,132.6,56.6z M130.6,30
		c-0.5,0-0.7-0.2-0.7-0.7C130.4,29.2,130.6,29.5,130.6,30z M129.9,256.5C130,255.8,130.9,256.7,129.9,256.5L129.9,256.5z
		 M129.5,274.5C129.4,274.4,129.6,274.7,129.5,274.5L129.5,274.5z M128.2,65.2c-0.5,0-0.7-0.2-0.7-0.7
		C128,64.5,128.2,64.7,128.2,65.2z M124.4,61.8c-1.4-1.5-4.3-1.7-3.5,1.1C117.1,61.3,122.9,57.7,124.4,61.8z M117.8,63.4
		c0.6-0.1,0.9,0.1,0.9,0.7C118.4,64.4,117.7,64.2,117.8,63.4z M115.6,69.3c-0.5,0.1-0.8,0-1.1-0.2C114.5,68.7,116,68.6,115.6,69.3z
		 M113.9,48.7c0.2,0.6-0.4,0.5-0.4,0.9C112.9,49.5,113.3,48.5,113.9,48.7z M112.5,37c0.1,0.6-0.1,1-0.7,0.9
		c-0.1-0.2-0.2-0.4-0.2-0.7C111.9,37,112.2,36.9,112.5,37z M111,51C111.1,50.3,111.9,51.2,111,51L111,51z M110.8,89.1
		c-0.6,1-1.1,2.1-0.7,3.6C106.8,92.7,108,86.6,110.8,89.1z M109.5,129.1c-0.2,0.3-0.7,0.3-1.1,0.5c-0.1,1,0.4,1.4,0.7,2
		c0.8,0.2,1.1-0.3,1.8-0.2c-1.2,0.8-0.1,1.4,0.2,2.5c-2.6-0.1-4.7-3.9-5.5-5.9C106.7,126.6,109.3,127.4,109.5,129.1z M106.2,123
		C106.2,122.3,107.1,123.2,106.2,123L106.2,123z M106.2,30.6c-0.5,0-0.7-0.2-0.7-0.7c0.2,0,0.4,0,0.7,0
		C106.2,30.2,106.2,30.4,106.2,30.6z M105.1,20c0.1,0,0.3,0,0.4,0c0,0.2,0,0.3,0,0.5c-0.1,0-0.3,0-0.4,0
		C105.1,20.3,105.1,20.2,105.1,20z M105.1,95.7c-0.6,0.8-1.6,1-1.1,2.5C100.6,97.8,103.2,92.9,105.1,95.7z M103.1,138.6
		c-0.3,0.5-0.5,1.2-1.3,1.1C101.1,138.8,102.2,138,103.1,138.6z M101.8,54.6c-0.6,0.1-0.8-0.1-0.7-0.7
		C101.6,53.9,101.8,54.1,101.8,54.6z M100,38.8c0.3-0.3,1-0.3,1.3,0c-0.2,0.3-0.4,0.7-0.7,0.9C100.1,39.7,99.9,39.4,100,38.8z
		 M99.6,39.7c0.8-0.1,0.7,0.7,0.7,1.4c-0.3,0-0.6,0-0.9,0C99.2,40.3,99.7,40.4,99.6,39.7z M98.7,133.4
		C98.7,132.7,99.6,133.6,98.7,133.4L98.7,133.4z M98.7,145.1c0.5,0,0.7,0.2,0.7,0.7C98.8,145.9,98.5,145.7,98.7,145.1z M98.7,270.2
		c0,0.2,0,0.5,0,0.7c-0.5,0.6-0.4-0.3-1.1-0.2C97.6,270.2,98.1,270.2,98.7,270.2z M96.5,163.4c0.3,0,0.6,0,0.9,0
		C97.5,164.3,96.3,164.3,96.5,163.4z M96.7,91.8c-0.3,0.6-0.4,1.4-1.1,1.6C95.2,92.4,95.7,91.3,96.7,91.8z M95.2,148.5
		C95.2,147.8,96.1,148.7,95.2,148.5L95.2,148.5z M94.5,138.4c0.4-0.1,0.4,0.2,0.7,0.2C95.2,139,94.2,138.9,94.5,138.4z M93.4,40.1
		c0.4-0.1,0.7,0,0.7,0.5c-0.2,0-0.4,0-0.7,0C93.4,40.4,93.4,40.3,93.4,40.1z M94.1,157.1c-0.1,0.3-0.3,0.5-0.7,0.5
		C93.3,157.1,93.7,157.1,94.1,157.1z M93.4,164.1c0.6,0,1.2,0,1.1,0.7C94.1,165.2,93.2,165,93.4,164.1z M92.3,30
		c0.4-0.1,0.4,0.2,0.7,0.2C93,30.6,92,30.5,92.3,30z M91.6,33.1c0.5-0.1,0.8,0,1.1,0.2C92.8,33.9,91.2,34.1,91.6,33.1z M91.4,78.7
		c0.5,0,1.1,0,1.3,0.2c0,0.5-0.4,0.7-0.2,1.4c-0.4,0-0.7,0-1.1,0C91.6,79.5,91,79.1,91.4,78.7z M91.4,85.1c0.1,0.3-0.9,0.6-0.2,0.7
		c-0.5,0.8-0.6-0.6-0.9-0.7C90.4,84.5,91.3,84.9,91.4,85.1z M91.2,147.6c-0.1,0.5-0.5,0.6-0.4,1.4c-0.4-0.2-0.8-0.4-0.7-1.1
		C90.3,147.7,90.7,147.5,91.2,147.6z M88.5,67.2c0-0.9,0.7-1,1.3-0.7C89.9,67.3,89.1,67.7,88.5,67.2z M88.5,49.2c0.2,0,0.4,0,0.7,0
		c0.6,0.7-0.1,1.6,0,2.5C87.6,51.7,88.1,49.6,88.5,49.2z M88.5,174.5c-0.3,0.5-0.6,0.9-0.4,1.8C86,176.4,86.9,173.4,88.5,174.5z
		 M86.8,29.1C86.2,28.4,87.5,29.7,86.8,29.1L86.8,29.1z M87.4,45.8c-0.6,0-0.9-0.3-0.9-0.9C87.3,44.8,87.5,45.1,87.4,45.8z
		 M87.2,202c-1,0.2-0.2,2.2-1.5,2c-0.3-0.4,0.1-1.4,0.2-2C86.7,202.1,86.5,202.3,87.2,202z M85,31.5c0.4-0.1,0.7,0,0.7,0.5
		c-0.2,0-0.4,0-0.7,0C85,31.8,85,31.7,85,31.5z M85,170.7C85.1,170.6,85.1,170.6,85,170.7C85.1,170.6,85,170.7,85,170.7
		C85,170.7,85,170.7,85,170.7z M84.8,35.4c-0.2,1.2-1.2,1.6-2.4,1.8C81.4,35.3,83.6,34.2,84.8,35.4z M81.7,87.1
		C82.1,86.3,82.4,87.8,81.7,87.1L81.7,87.1z M80.6,30.4C79.8,31.2,79.5,29.6,80.6,30.4L80.6,30.4z M81.7,52.3
		c-0.4,0.6-1.5,1.3-2.4,0.7C79.4,51.8,81,51.5,81.7,52.3z M80.2,88.4c-0.1,0.6-1.8,0.9-0.9,1.8C77.2,91.2,78,86.8,80.2,88.4z
		 M77.8,127.3C78.1,126.5,78.4,128,77.8,127.3L77.8,127.3z M76.7,210c0.4-0.1,0.7,0,0.7,0.5c-0.2,0-0.4,0-0.7,0
		C76.7,210.3,76.7,210.1,76.7,210z M75.3,114.9c-0.6-0.3-1.3-0.5-1.1-1.6c0.5-0.1,1.1-0.4,1.5,0C75.4,114,75.5,114.3,75.3,114.9z
		 M74.2,104c0.7-0.2,0.8,0.2,1.3,0.2c-0.3,0.6-0.4,1.4-1.3,1.4C73.9,105.3,73.9,104.3,74.2,104z M73.6,161.6
		c0.2,1.2-1.1,1.4-1.1,0.2C73,161.9,73,161.4,73.6,161.6z M72.5,71.7c-0.7,0.2-0.7-0.4-1.1-0.5C71.5,69.7,73.6,70.7,72.5,71.7z
		 M70.1,202.9c0.1,1-0.2,2.8,1.3,2.9C69.8,207.1,67.5,203.1,70.1,202.9z M70.9,189.2c-0.9,0.1-1-0.5-1.1-1.1
		C70.6,188,71.1,188.2,70.9,189.2z M70.5,150.8c-0.4,0.5-1.3,2-0.2,2.5C69,154.2,68,150,70.5,150.8z M69.6,135.6
		c0.2,1.4-1.4,1.7-0.7,2.9C66,138.7,67,134.4,69.6,135.6z M67,87.8c-0.2-0.8,0.2-1,0.4-1.4c0.2,0.1,0.4,0.2,0.7,0.2
		C68.2,87.7,67.7,88.2,67,87.8z M65.9,54.3c0.7,0.2,1.5,0.2,1.5,1.1c-0.8-0.1-0.9,0.6-1.1,1.1C64.6,56.4,65.2,55.3,65.9,54.3z
		 M64.3,114.4c0.4-0.4,0.3,0,0.9,0C65.4,115.3,64.2,115.3,64.3,114.4z M62.3,79.9c0.5,0,1,0,1.5,0c0.6,0.9-0.6,0.7-0.4,1.8
		c-0.7,0.1-0.9-0.3-1.3-0.5C62,80.5,62.4,80.4,62.3,79.9z M61.2,46.2c-0.7,0.2-0.7-0.4-1.1-0.5C60.3,45.2,61.5,45.5,61.2,46.2z
		 M61.7,132.3c-0.1,0.6-0.9,0.5-0.7,1.4c-0.6,0.2-0.6-0.3-1.1-0.2C59.6,132.1,60.9,131.7,61.7,132.3z M59.3,111.9
		c0.4-0.1,0.4,0.2,0.7,0.2C60,112.6,58.9,112.5,59.3,111.9z M58.6,175.8c-0.8-0.1-0.9-0.5-0.7-1.1C58.7,174.8,58.9,175.2,58.6,175.8
		z M58.2,126.4C57.6,127.1,57.3,125.6,58.2,126.4L58.2,126.4z M57.7,47.1c0,1.3-1.5,1.5-2.2,0.9C55.3,46.7,57.1,46.3,57.7,47.1z
		 M55.1,136.1c0.5,0.1,1,0.1,0.9,0.9C55.3,137.1,55,136.8,55.1,136.1z M55.3,191c0,0.2,0,0.3,0,0.5C54.2,191.7,54.9,190.2,55.3,191z
		 M54.2,100.2C54.6,99.4,54.9,100.9,54.2,100.2L54.2,100.2z M53.8,62.9c0.1,0,0.3,0,0.4,0c0,0.1,0,0.3,0,0.5c-0.1,0-0.3,0-0.4,0
		C53.8,63.2,53.8,63.1,53.8,62.9z M53.8,178.6C53.8,177.9,54.7,178.8,53.8,178.6L53.8,178.6z M53.3,156.2c-0.2,0-0.4,0-0.7,0
		c0-0.2,0-0.3,0-0.5C53.1,155.7,53.3,155.8,53.3,156.2z M52.9,149.2c-0.2,0.6-0.9,1.3-1.5,0.7C51.6,149.4,52.2,148.6,52.9,149.2z
		 M51.1,106.3C50.6,107,50.2,105.5,51.1,106.3L51.1,106.3z M14.8,175.2c0.5-0.1,0.6,0.2,0.9,0.2C15.6,176.1,14.6,175.9,14.8,175.2z
		 M14.1,140.2c0-1.2,1.2-1.1,2.2-1.4c-0.2,0.9,0.1,0.8,0.7,1.8C15.8,140.2,15.4,139.4,14.1,140.2z M19.2,102.4
		c-0.7,0-1.1-0.7-0.7-1.1C19.2,101.2,19.2,101.8,19.2,102.4z M20.5,153.3C21.1,152.4,20.8,154,20.5,153.3L20.5,153.3z M25.6,165.9
		c-0.3-0.1-0.3-0.4-0.7-0.5c0-0.3,0.4-0.2,0.7-0.2C25.6,165.5,25.6,165.7,25.6,165.9z M25.6,138.8C26.6,139,25.4,140.2,25.6,138.8
		L25.6,138.8z M26.7,151.7c0.5-0.1,0.4,0.3,0.4,0.7C26.8,152.3,26.7,152.1,26.7,151.7z M29.3,185.6c-0.6,0.1-0.8-0.1-0.7-0.7
		c0.2,0,0.4,0,0.7,0C29.3,185.1,29.3,185.3,29.3,185.6z M34.4,134.5c0.2-0.2,0.5-0.2,0.9-0.2c0.1,0.7-0.3,1.1-0.9,1.1
		C34.8,135,34.4,135.1,34.4,134.5z M34.8,140.2c0.1-1,0.6-1.5,1.5-1.6c-0.1,0.8-0.5,1.4-0.9,2C35,140.7,35.2,140.2,34.8,140.2z
		 M36.1,157.3c-0.4-0.1-0.5-0.4-0.4-0.9C36.4,156.2,36.1,156.9,36.1,157.3z M41,179.7c-0.1,0-0.3,0-0.4,0c0-0.2,0-0.5,0-0.7
		c0.4-0.1,0.4,0.2,0.7,0.2C41.2,179.4,41,179.5,41,179.7z M43.9,171.3c-3.3,0.3-0.8-4.3,0.4-1.6C43.3,169.9,44.6,170,43.9,171.3z
		 M48.9,195.5c-0.6,0.1-0.8-0.1-0.7-0.7c0.2,0,0.4,0,0.7,0C48.9,195,48.9,195.3,48.9,195.5z M48.7,64.3
		C48.7,63.6,49.6,64.5,48.7,64.3L48.7,64.3z M47.6,102.7c0.8-0.2,0.8,1,0.4,1.4C47.5,103.9,47.1,103.2,47.6,102.7z M46.9,137.2
		c0.6-0.1,0.7,0.3,0.7,0.9c-0.6,0.1-0.9-0.1-0.9-0.7C46.9,137.5,46.9,137.4,46.9,137.2z M45.8,160.5
		C46.2,159.7,46.4,161.4,45.8,160.5L45.8,160.5z M45.4,161.8c0.5-0.1,0.6,0.2,0.9,0.2c-0.2,0.3-0.2,0.9-0.9,0.7
		C45.4,162.4,45.4,162.1,45.4,161.8z M44.3,162.3c0.1,0,0.3,0,0.4,0c0,0.2,0,0.5,0,0.7c-0.2-0.1-0.4-0.2-0.7-0.2
		C44.1,162.6,44.3,162.5,44.3,162.3z M43.6,164.6c0,0.2,0.1,0.2,0.2,0.2c0,0.2,0,0.3,0,0.5c-0.2,0-0.2,0.1-0.2,0.2
		c-0.1,0-0.3,0-0.4,0c0-0.2-0.1-0.2-0.2-0.2c0-0.2,0-0.3,0-0.5c0.2,0,0.2-0.1,0.2-0.2C43.3,164.6,43.5,164.6,43.6,164.6z M42.8,99.3
		C42.8,98.6,43.7,99.5,42.8,99.3L42.8,99.3z M42.5,136.8c1.1-1.2-0.5,1.6,0,0.2C42.5,137,42.5,136.8,42.5,136.8z M42.1,159.8
		C43,160,42.1,161,42.1,159.8L42.1,159.8z M41,66.3c0.8,0.1,0.6,1,0,0.5C41,66.6,41,66.5,41,66.3z M41,157.8
		c-0.1,0.2-0.2,0.4-0.2,0.7c-0.6,0.2-0.4-0.4-0.9-0.5C39.9,157.4,40.7,157.5,41,157.8z M39.7,68.1c0.5,0,0.7,0.2,0.7,0.7
		C39.8,68.9,39.5,68.7,39.7,68.1z M40.1,179.5c0,0.2,0,0.5,0,0.7c-0.5,0-0.7-0.2-0.7-0.7C39.7,179.5,39.9,179.5,40.1,179.5z
		 M37.7,197.8c-0.4,0-0.7,0-1.1,0c-0.3-0.3-0.3-1.3,0-1.6c0.3,0,0.6,0,0.9,0C37.5,196.7,37.8,197,37.7,197.8z M34.2,102
		c0.3,0,0.8-0.1,0.9,0.2C35.3,103,33.7,102.8,34.2,102z M36.6,120.7c0.5,2.6-3.4,3.5-3.3,0.7C34.2,121.1,35.6,120.2,36.6,120.7z
		 M32,190.3C32.3,189.6,32.5,191.2,32,190.3L32,190.3z M29.3,148.1c0.6,0.6-0.5,0.5-0.2,1.4c-0.6,0-0.9-0.4-0.9-1.1
		C28.8,148.4,28.7,147.9,29.3,148.1z M28,123.9c-0.5,0-0.7-0.2-0.7-0.7c0.2,0,0.4,0,0.7,0C28,123.5,28,123.7,28,123.9z M26.5,86.4
		c0.3,0,0.6,0,0.9,0C27.6,87.6,26.2,87.6,26.5,86.4z M26.2,94.3c0.1,1.2-0.7,1.5-0.4,2.9C23.2,97.6,23.7,92.8,26.2,94.3z
		 M26.7,134.3c-0.8,0.7-1.5,2.1-1.3,3.2c-1-0.8-1.1,0.2-2.2,0.5C23.1,136.5,24.3,133.3,26.7,134.3z M23.8,142c0,1.2-0.6,1.4-0.2,2.5
		C21.6,144.7,22.3,141,23.8,142z M22.7,129.6c-0.1,0.5-0.3,0.9-1.1,0.7C21.5,129.5,22.2,129,22.7,129.6z"/>
	<g>
		<g>
			<polygon fill="none" stroke="#FFFFFF" stroke-width="2" stroke-miterlimit="10" points="120.4,246.6 120.4,227.6 143.9,227.6 
				143.9,112.6 175.6,79.1 208.9,112.4 208.9,229.5 208.9,246.5 			"/>
			<polygon fill="#FFFFFF" points="176,84.8 150.4,112.5 193.8,102.8 			"/>
			<rect x="151.7" y="120.1" fill="#FFFFFF" width="14.2" height="9"/>
			<rect x="151.7" y="134.1" fill="#FFFFFF" width="14.2" height="9"/>
			<rect x="151.7" y="148.1" fill="#FFFFFF" width="14.2" height="9"/>
			<rect x="151.7" y="162.1" fill="#FFFFFF" width="14.2" height="9"/>
			<rect x="151.7" y="176" fill="#FFFFFF" width="14.2" height="9"/>
			<rect x="151.7" y="190" fill="#FFFFFF" width="14.2" height="9"/>
			<rect x="169.5" y="120.1" fill="#FFFFFF" width="14.2" height="9"/>
			<rect x="169.5" y="134.1" fill="#FFFFFF" width="14.2" height="9"/>
			<rect x="169.5" y="148.1" fill="#FFFFFF" width="14.2" height="9"/>
			<rect x="169.5" y="162.1" fill="#FFFFFF" width="14.2" height="9"/>
			<rect x="169.5" y="176" fill="#FFFFFF" width="14.2" height="9"/>
			<rect x="169.5" y="190" fill="#FFFFFF" width="14.2" height="9"/>
			<rect x="187.3" y="120.1" fill="#FFFFFF" width="14.2" height="9"/>
			<rect x="187.3" y="134.1" fill="#FFFFFF" width="14.2" height="9"/>
			<rect x="187.3" y="148.1" fill="#FFFFFF" width="14.2" height="9"/>
			<rect x="187.3" y="162.1" fill="#FFFFFF" width="14.2" height="9"/>
			<rect x="187.3" y="176" fill="#FFFFFF" width="14.2" height="9"/>
			<rect x="187.3" y="190" fill="#FFFFFF" width="14.2" height="9"/>
			<rect x="151.7" y="204.2" fill="#FFFFFF" width="14.2" height="9"/>
			<rect x="169.5" y="204.2" fill="#FFFFFF" width="14.2" height="9"/>
			<rect x="187.3" y="204.2" fill="#FFFFFF" width="14.2" height="9"/>
			<rect x="151.7" y="217.2" fill="#FFFFFF" width="14.2" height="9"/>
			<rect x="169.5" y="217.2" fill="#FFFFFF" width="14.2" height="9"/>
			<rect x="187.3" y="217.2" fill="#FFFFFF" width="14.2" height="9"/>
			<rect x="151.7" y="230.1" fill="#FFFFFF" width="14.2" height="9"/>
			<rect x="169.5" y="230.1" fill="#FFFFFF" width="14.2" height="9"/>
			<rect x="187.3" y="230.1" fill="#FFFFFF" width="14.2" height="9"/>
			<rect x="124.4" y="231.3" fill="#FFFFFF" width="15.9" height="11.5"/>
		</g>
		<path fill="#FFFFFF" d="M164.3,64.6c0,1.3-1,2.3-2.3,2.3h-50.7c-1.3,0-2.3-1-2.3-2.3l0,0c0-1.3,1-2.3,2.3-2.3H162
			C163.3,62.3,164.3,63.3,164.3,64.6L164.3,64.6z"/>
		<path fill="#FFFFFF" d="M155.6,61.2c0,1.3-1,2.3-2.3,2.3h-50.7c-1.3,0-2.3-1-2.3-2.3l0,0c0-1.3,1-2.3,2.3-2.3h50.7
			C154.6,58.9,155.6,59.9,155.6,61.2L155.6,61.2z"/>
		<path fill="#FFFFFF" d="M148,57.7c0,1.3-0.6,2.3-1.3,2.3h-28.4c-0.7,0-1.3-1-1.3-2.3l0,0c0-1.3,0.6-2.3,1.3-2.3h28.4
			C147.4,55.4,148,56.4,148,57.7L148,57.7z"/>
		<path fill="#FFFFFF" d="M219.2,56.1c0,1.8-0.7,3.2-1.6,3.2h-36.1c-0.9,0-1.6-1.4-1.6-3.2l0,0c0-1.8,0.7-3.2,1.6-3.2h36.1
			C218.4,52.9,219.2,54.3,219.2,56.1L219.2,56.1z"/>
		<path fill="#FFFFFF" d="M214.2,52.6c0,1.8-0.7,3.2-1.6,3.2h-36.1c-0.9,0-1.6-1.4-1.6-3.2l0,0c0-1.8,0.7-3.2,1.6-3.2h36.1
			C213.5,49.5,214.2,50.9,214.2,52.6L214.2,52.6z"/>
		<path fill="#FFFFFF" d="M207.5,49.1c0,1.8-0.4,3.2-0.9,3.2h-20.2c-0.5,0-0.9-1.4-0.9-3.2l0,0c0-1.8,0.4-3.2,0.9-3.2h20.2
			C207.1,45.9,207.5,47.3,207.5,49.1L207.5,49.1z"/>
		<path fill="#FFFFFF" d="M215.5,250.5c0,2.8-2.2,5.1-4.8,5.1H88c-2.7,0-4.8-2.3-4.8-5.1l0,0c0-2.8,2.2-5.1,4.8-5.1h122.7
			C213.3,245.4,215.5,247.7,215.5,250.5L215.5,250.5z"/>
		<polyline fill="none" stroke="#FFFFFF" stroke-width="2" stroke-miterlimit="10" points="143,172.2 91.3,172.2 91.3,251.7 		"/>
		<rect x="100.3" y="182.3" fill="none" stroke="#FFFFFF" stroke-width="2" stroke-miterlimit="10" width="36.4" height="7.7"/>
		<rect x="100.3" y="196.3" fill="none" stroke="#FFFFFF" stroke-width="2" stroke-miterlimit="10" width="36.4" height="7.7"/>
		<rect x="100.3" y="210.3" fill="none" stroke="#FFFFFF" stroke-width="2" stroke-miterlimit="10" width="36.4" height="7.7"/>
	</g>
</g>
</svg>
