<?xml version="1.0" encoding="utf-8"?>
<!-- Generator: Adobe Illustrator 17.1.0, SVG Export Plug-In . SVG Version: 6.00 Build 0)  -->
<!DOCTYPE svg PUBLIC "-//W3C//DTD SVG 1.1//EN" "http://www.w3.org/Graphics/SVG/1.1/DTD/svg11.dtd">
<svg version="1.1" id="Layer_1" xmlns="http://www.w3.org/2000/svg" xmlns:xlink="http://www.w3.org/1999/xlink" x="0px" y="0px"
	 viewBox="0 0 300 300" enable-background="new 0 0 300 300" xml:space="preserve">
<g>
	<path fill="#4CBED5" d="M152.5,290.1c0.6-0.1,0.8,0.4,0.6,0.7c64.4-1.4,118.1-46,133.4-105.9c0,0,0,0,0,0c0,0,0,0,0,0
		c2.8-11.1,4.3-22.8,4.3-34.8c0-77.8-63-140.8-140.8-140.8c-8.9,0-17.6,0.8-26,2.4c0.1,0,0.1,0,0.2,0c0.1,0.7-0.5,0.7-0.5,1.4
		c-0.8,0.2-1.4-0.3-1.7-1c-43.1,8.7-79.1,37.1-98.2,75.4c0.1,0.1,0.2,0.3,0.3,0.5c-0.3,0.1-0.5,0.2-0.7,0.2
		C14.3,106.8,9.2,127.8,9.2,150c0,1.1,0,2.2,0,3.3c0.1,0.1,0.1,0.2,0.2,0.3c-0.1,0-0.1-0.1-0.2-0.1c1.9,76.1,64.2,137.2,140.8,137.2
		c0.8,0,1.6,0,2.5,0C152.4,290.4,152.1,290.5,152.5,290.1z M273.4,187.3C273.8,186.5,274.2,188,273.4,187.3L273.4,187.3z
		 M283.6,192.7C284,192,284.2,193.6,283.6,192.7L283.6,192.7z M282.2,104.2C282.3,104.3,282.1,104.1,282.2,104.2L282.2,104.2z
		 M283.6,133.6c0.4,0.4,0,0.3,0,0.9c-0.3,0.3-1,0.2-1.7,0.2C282.5,134.3,282.6,133.5,283.6,133.6z M278.6,193.2
		c-0.1,0.2-0.2,0.4-0.2,0.7c-0.3-0.1-0.5-0.3-0.5-0.7C278.2,193.2,278.4,193.2,278.6,193.2z M275.3,173.3c0.2,0,0.3,0,0.5,0
		c0,0.2,0,0.3,0,0.5c-0.2,0-0.3,0-0.5,0C275.3,173.6,275.3,173.5,275.3,173.3z M275.1,183.9c-0.5,0.7-1.3,0.8-0.7,2
		C271.8,186,273.3,182.1,275.1,183.9z M270.6,196.6C270.9,195.8,271.2,197.4,270.6,196.6L270.6,196.6z M268.4,177.4
		c-0.1,0.4-0.7,0.2-0.5,0.9c-0.5,0.1-0.6-0.2-0.9-0.2C267.1,177.5,267.8,176.8,268.4,177.4z M268.2,181.7c-0.1,0.8-1.1,0.8-0.2,1.6
		c-0.6,0.7-1-0.7-0.9-1.4C267.3,181.7,267.6,181.6,268.2,181.7z M267.5,214c-0.2,0-0.3,0-0.5,0c0-0.2-0.1-0.2-0.2-0.2
		C266.7,213.3,267.9,213.4,267.5,214z M264.4,226.6c0.2,0,0.3,0,0.5,0c0,0.2,0,0.3,0,0.5c-0.2,0-0.3,0-0.5,0
		C264.4,226.9,264.4,226.8,264.4,226.6z M261.6,179.2c0,0.7-0.4,1.1-1.2,1.1C259.8,179.7,260.5,178.9,261.6,179.2z M260.1,174.2
		c0.2,0,0.3,0,0.5,0c0,0.1,0,0.3,0,0.5c-0.2,0-0.3,0-0.5,0C260.1,174.5,260.1,174.4,260.1,174.2z M258,200.9
		C257.9,200.8,258.2,201,258,200.9L258,200.9z M256.8,186.6C256.9,186,257.8,186.8,256.8,186.6L256.8,186.6z M256.6,177.8
		C256.7,178,256.5,177.7,256.6,177.8L256.6,177.8z M256.6,194.5c0,0.3,0,0.6,0,0.9C255.5,195.6,255.4,194.2,256.6,194.5z
		 M255.2,176.5C255.1,176.4,255.3,176.6,255.2,176.5L255.2,176.5z M254.4,202.7c0.1,0.7-0.6,0.8-0.9,0.5
		C253.5,202.7,253.9,202.6,254.4,202.7z M252.5,194.3c0.4-0.1,0.4,0.2,0.7,0.2c0,0.2-0.2,0.2-0.2,0.5c-0.2,0-0.3,0-0.5,0
		C252.5,194.8,252.5,194.5,252.5,194.3z M251.4,74.6c-0.6,0.1-1-0.1-0.9-0.7C251,73.9,251.4,74,251.4,74.6z M250.4,71
		c0.2,0,0.5,0,0.7,0c0.1,0.5-0.2,0.6-0.2,0.9C250.5,71.8,250.3,71.5,250.4,71z M249.9,178.3c0.2,0,0.3,0,0.5,0c0,0.1,0,0.3,0,0.5
		c-0.2,0-0.3,0-0.5,0C249.9,178.6,249.9,178.4,249.9,178.3z M154.8,257.8C155.4,256.9,155.2,258.5,154.8,257.8L154.8,257.8z
		 M165.7,239.9c0.1-0.3,0.3-0.5,0.7-0.5C166.6,240,166.1,239.9,165.7,239.9z M208,268.8c-1.3,0.1-0.8-0.6-0.7-1.4
		c0.4,0,0.5,0.3,0.9,0.2C208,268,207.9,268.3,208,268.8z M214.6,224.8c0-0.3,0-0.6,0-0.9C215.7,223.7,215.8,225.1,214.6,224.8z
		 M223.8,266.1C223.7,266,224,266.3,223.8,266.1L223.8,266.1z M224.3,232.7c-2.3,2.2-3-4.1,0.2-2.7
		C223.9,230.6,222,232.4,224.3,232.7z M233.6,246.3c-0.2,0-0.3,0-0.5,0c0-0.2-0.1-0.2-0.2-0.2C232.8,245.6,233.9,245.7,233.6,246.3z
		 M236.4,202c-0.9,0.2-0.8-1-0.5-1.4c0.2,0,0.5,0,0.7,0C236.8,201.3,236.2,201.3,236.4,202z M238.8,203.8
		C238.9,203.9,238.7,203.7,238.8,203.8L238.8,203.8z M247.3,186c0.6,0,1.4-0.1,1.7,0.2c0.3,0.7-0.8,0.2-0.5,0.9
		C247.9,187,247.2,186.8,247.3,186z M246.4,209.4c-0.5,0-0.8-0.2-0.7-0.7C245.9,209,246.5,208.8,246.4,209.4z M244.5,215.8
		c0.7-0.3,0.7,1,0,0.7C244.5,216.2,244.5,216,244.5,215.8z M243.8,177.1C244.4,176.3,244.1,177.9,243.8,177.1L243.8,177.1z
		 M242.1,77.8C242.2,77.1,243.1,78,242.1,77.8L242.1,77.8z M240.2,208.3c0.2,0,0.3,0,0.5,0c0,0.2,0,0.3,0,0.5c-0.2,0-0.3,0-0.5,0
		C240.2,208.6,240.2,208.5,240.2,208.3z M239.7,64.7C240.1,63.9,240.5,65.4,239.7,64.7L239.7,64.7z M239,183.7
		c-0.6,0.6,0.3,0.7,0.2,1.4c-0.7,0.6-1-0.8-1.7-0.9c-0.6,0.1,0.3,0.4,0,0.9c-4.9-1.3-1.2-8,1.7-3.2c-0.6-0.2-1.3-0.3-2.1-0.2
		C236.7,182.6,236.9,184,239,183.7z M238.3,78.7C239,77.8,239.1,79.4,238.3,78.7L238.3,78.7z M237.8,52.3c-0.7,0-2.4,1.1-2.6,2.3
		C234.5,53.1,236,51.9,237.8,52.3z M233.8,234.7c0,0.6-1.1,0.5-1.4,0.2c0.3,0.4-1,1.8,0.7,2.3C230.4,238.1,231.1,233.3,233.8,234.7z
		 M231.4,65.1C230.3,66.6,230,63.7,231.4,65.1L231.4,65.1z M230.2,226.2C230.6,225.4,230.8,227,230.2,226.2L230.2,226.2z
		 M230.5,226.8c0.1,0.7-1.3,1-1.7,0.5C228.7,226.5,230.1,226.5,230.5,226.8z M227.6,224.1c0.2,0,0.3,0,0.5,0c0,0.2,0,0.3,0,0.5
		c-0.2,0-0.3,0-0.5,0C227.6,224.4,227.6,224.3,227.6,224.1z M227.6,231.3c0.7-0.2,0.6,0.3,1.2,0.2c-0.2,0.8-0.3,1.7-1.4,1.6
		C226.9,232.6,227.5,231.9,227.6,231.3z M225.7,76.6c0,0.2,0,0.5,0,0.7c-0.2,0-0.5,0-0.7,0C225,76.8,225.2,76.6,225.7,76.6z
		 M225,201.1c0.3,0,0.6,0,0.9,0c0.2,0.7-0.5,0.4-0.9,0.5C225,201.4,225,201.2,225,201.1z M224.8,176.2
		C224.9,176.4,224.7,176.1,224.8,176.2L224.8,176.2z M224.3,206.3C224.4,205.6,225.3,206.5,224.3,206.3L224.3,206.3z M222.9,215.8
		c-0.7-0.2-0.3-0.6-0.2-1.1c0.3,0,0.6,0,0.9,0C223.5,215.2,222.8,215.1,222.9,215.8z M223.1,197.9c0.1,0.5-0.4,0.5-0.2,1.1
		c-0.7,0-0.8-0.6-0.9-1.1C222.3,197.6,222.8,197.6,223.1,197.9z M219.6,199.7c-0.5,0-0.8-0.2-0.7-0.7
		C219.4,199,219.6,199.2,219.6,199.7z M219.3,76.4c0,0.2,0,0.3,0,0.5C218.2,77.1,218.9,75.7,219.3,76.4z M219.3,247.6
		c-0.2,0.7-0.8-0.1-1.2,0C218.3,246.8,219,247.3,219.3,247.6z M216.5,200.4C214.9,200.6,216.6,199,216.5,200.4L216.5,200.4z
		 M216.3,178.3c-0.5,0.7-1.2-0.5-0.7,0.7c-0.8,0-1.2-0.3-1.2-1.1C215.1,177.2,215.8,177.9,216.3,178.3z M214.8,211.7
		c-0.5,0-0.8-0.2-0.7-0.7C214.6,211,214.9,211.2,214.8,211.7z M211,226.8c1.4-0.2,2-0.2,3.3-0.7c0.1,0.5,0,0.9-0.2,1.1
		c-1.2-0.4-0.9,0.1-1.7,0.5c0.2,0.2,0.5,0.2,0.5,0.7c-1.1-0.4-1.3,0.7-1.9,0.2C211.2,227.7,211.1,227.9,211,226.8z M209.1,23.1
		c0.2,0,0.5,0,0.7,0c0,0.2,0,0.5,0,0.7C209.2,23.9,209,23.7,209.1,23.1z M209.9,190.9c-0.1,0.9-0.1,0.7,0,1.6
		c-0.5-0.3-1.1-0.6-0.9-1.6C209.2,190.9,209.5,190.9,209.9,190.9z M208.9,218.9C209.3,218.1,209.6,219.7,208.9,218.9L208.9,218.9z
		 M207.7,70.8c0.2,0,0.3,0,0.5,0c0,0.2,0,0.3,0,0.5c-0.2,0-0.3,0-0.5,0C207.7,71.1,207.7,70.9,207.7,70.8z M208.9,253
		c0,1.2-0.9,1.7-1.4,2.5c0.1,0.9,0.8,1.2,1.4,1.6C205.6,258.1,205.8,252.1,208.9,253z M204.9,64.2c-0.3,0-0.6,0-0.9,0
		C203.7,63.4,205.1,63.4,204.9,64.2z M202.5,22.4c0.5,0,0.8,0.2,0.7,0.7C202.6,23.3,202.4,23,202.5,22.4z M199.9,38
		C198.3,38.2,200,36.6,199.9,38L199.9,38z M193.5,40.1c-0.6,0.1-1-0.1-0.9-0.7C193.2,39.3,193.7,39.3,193.5,40.1z M193.5,44.8
		c-0.1,0.5-0.3,1.1-0.9,1.1c-0.2-0.2-0.3-0.5-0.2-0.9C192.6,44.8,192.9,44.7,193.5,44.8z M192.8,56.8
		C190.7,55.9,193.4,54.6,192.8,56.8L192.8,56.8z M192.3,66.3c-0.6,0.1-1-0.1-0.9-0.7C192,65.5,192.4,65.7,192.3,66.3z M190.2,52
		c1-0.2,0.6,1,0.7,1.8C189.5,54.1,189.4,52.5,190.2,52z M188.3,30.1c0.2,0.1,0.4,0.2,0.7,0.2c-0.1,1-0.7,1.4-0.5,2.7
		C187.5,32.7,187.2,30.6,188.3,30.1z M187.8,36.9c0.8-0.2,1,0.3,1.4,0.5c-0.8,0.1-0.4,1.4-1.4,1.4C187.4,38.4,187.4,37.2,187.8,36.9
		z M187.3,46.4c0.6-0.1,0.9,0,1.2,0.2c-0.4,0.3-0.3,1.1-1.2,0.9C187.3,47.1,187.3,46.8,187.3,46.4z M184.5,267.5
		C184.8,266.8,185.7,267.7,184.5,267.5L184.5,267.5z M182.8,261.6C183.2,260.8,183.6,262.3,182.8,261.6L182.8,261.6z M182.8,64.9
		c-0.3-0.1-0.4-0.4-0.7-0.5C182.2,63.9,183,64.4,182.8,64.9z M181.4,241.5c0.6-0.1,0.8,0.3,0.7,0.9
		C181.3,242.6,181.3,242.1,181.4,241.5z M179,50.9C179.3,50.2,180.3,51.1,179,50.9L179,50.9z M179.3,283.5c0.8,0.2,0.1,0.4,0.2,1.1
		c-0.6,0.1-0.6-0.5-0.7-0.9C179.1,283.8,179.2,283.7,179.3,283.5z M177.8,246C177.7,245.9,178,246.2,177.8,246L177.8,246z
		 M174.5,40.3c0.4,0,0.5,0.3,0.9,0.2c-0.1,0.7-0.5,1-1.2,1.1C174.1,40.9,174.5,40.8,174.5,40.3z M174.3,51.4
		c0.6,0.1,0.5,0.6,0.2,0.9C174,52.2,174,51.7,174.3,51.4z M174.5,240.2c0,0.2,0,0.3,0,0.5C173.4,240.8,174.1,239.4,174.5,240.2z
		 M173.3,257.3C173.4,256.6,174.3,257.5,173.3,257.3L173.3,257.3z M172.6,244.7c0.5-0.1,0.6,0.2,0.9,0.2
		C173.5,245.6,172.4,245.4,172.6,244.7z M170,73c-0.2,0-0.3,0-0.5,0c0-0.2-0.1-0.2-0.2-0.2C169.2,72.4,170.4,72.5,170,73z
		 M166.5,21.5c-0.2,0.6-1.3,0.3-1.7,0.7c0.2,0.8-0.4,0.9-0.2,1.6c-1.5-0.2-0.8-1.5-1.2-2.5C164.1,20.9,166,20.9,166.5,21.5z
		 M162.4,262.1C162.5,261.4,163.4,262.3,162.4,262.1L162.4,262.1z M161.2,268.6C162.5,267.7,162.2,269.8,161.2,268.6L161.2,268.6z
		 M160,61.5C160.4,60.7,160.8,62.3,160,61.5L160,61.5z M161,251.7c-0.2,0.7-0.7,1-0.2,1.8c-1.3,0.5-2.4-0.6-2.6-1.8
		C159,251.6,160.3,251.2,161,251.7z M157.9,76.4c-0.4-0.3-0.7-1.2,0.2-1.1C158.3,75.9,157.8,75.9,157.9,76.4z M158.2,56.3
		c-0.5,0.6-0.8,1.5-1.9,1.6C155.8,56.4,157.1,55.7,158.2,56.3z M157.2,40.5c0.1,0.7-0.2,1-0.9,0.9C155.8,40.5,156.3,40.1,157.2,40.5
		z M155.5,83.2c0,0.9-0.6,1.2-0.9,1.8C153.1,84.8,154.3,82.1,155.5,83.2z M19.4,107.4c0.1,1.2-0.8,1.5-0.5,2.9
		C16.2,110.7,16.7,105.9,19.4,107.4z M13.2,166.3C13.8,165.4,13.6,167.1,13.2,166.3L13.2,166.3z M14.4,143.3
		c-0.1-0.7,0.6-1.2,1.2-0.7C15.5,143.1,15.3,143.4,14.4,143.3z M16.6,157.5c-2.2,0.2-1.4-3.4,0.2-2.5
		C16.9,156.2,16.2,156.4,16.6,157.5z M18.7,179c-0.3-0.1-0.4-0.4-0.7-0.5c0-0.3,0.4-0.2,0.7-0.2C18.7,178.5,18.7,178.7,18.7,179z
		 M18.7,151.9C19.8,152,18.5,153.2,18.7,151.9L18.7,151.9z M18.5,150.5c-1.1-0.8-1.2,0.2-2.4,0.5c0-1.4,1.3-4.6,3.8-3.6
		C19,148.1,18.3,149.4,18.5,150.5z M19.9,164.7c0.5-0.1,0.5,0.3,0.5,0.7C20.1,165.3,19.9,165.1,19.9,164.7z M19.7,99.5
		c0.3,0,0.6,0,0.9,0C20.9,100.6,19.3,100.6,19.7,99.5z M21.3,136.9c-0.5,0-0.8-0.2-0.7-0.7c0.2,0,0.5,0,0.7,0
		C21.3,136.5,21.3,136.7,21.3,136.9z M22.7,198.6c-0.6,0.1-0.9-0.1-0.7-0.7c0.2,0,0.5,0,0.7,0C22.7,198.1,22.7,198.4,22.7,198.6z
		 M22.5,162.5c-0.7,0-1-0.4-0.9-1.1c0.6,0.1,0.5-0.4,1.2-0.2C23.3,161.7,22.2,161.6,22.5,162.5z M144.4,58.4c0.5-0.1,0.9,0,1.2,0.2
		c0.2,0.5-0.8,1-0.2,1.1C144.5,60.7,143.6,58.9,144.4,58.4z M145.3,50C145.2,49.9,145.5,50.1,145.3,50L145.3,50z M139.9,78.9
		c1.2-1.2-0.5,1.6,0,0.2C139.9,79.1,139.9,78.9,139.9,78.9z M138.9,13C139,12.3,139.9,13.2,138.9,13L138.9,13z M115.5,17
		c0,0.2,0,0.5,0,0.7c-0.5,0-0.8-0.2-0.7-0.7C115,17,115.2,17,115.5,17z M115.2,24.7c-0.2,0-0.3,0-0.5,0c0-0.2-0.1-0.2-0.2-0.2
		C114.4,24,115.6,24.1,115.2,24.7z M110.5,102.2c-0.7,1-1.2,2.1-0.7,3.6C106.2,105.7,107.5,99.6,110.5,102.2z M105.5,136
		C105.6,135.4,106.5,136.3,105.5,136L105.5,136z M105.5,43.7c-0.5,0-0.8-0.2-0.7-0.7c0.2,0,0.5,0,0.7,0
		C105.5,43.2,105.5,43.4,105.5,43.7z M100.8,152.8c-0.7-0.9,0.5-1.8,1.4-1.1C101.8,152.1,101.7,152.8,100.8,152.8z M101.7,153.4
		C102.1,152.7,102.3,154.3,101.7,153.4L101.7,153.4z M100.3,149.1c-0.9,0.1-1.2-0.8-0.7-1.4C100.9,147.8,100.7,148.4,100.3,149.1z
		 M100,163.4C100.1,162.7,101,163.6,100,163.4L100,163.4z M99.3,167.7c-0.2-0.2-0.9-0.1-0.7-0.7C99.2,166.8,99.5,167.1,99.3,167.7z
		 M100.8,67.6c-0.6,0.1-0.9-0.1-0.7-0.7C100.6,66.9,100.8,67.1,100.8,67.6z M98.9,51.8c0.3-0.3,1.1-0.3,1.4,0
		c-0.2,0.3-0.4,0.7-0.7,0.9C98.9,52.8,98.8,52.4,98.9,51.8z M98.4,52.7c0.8-0.1,0.7,0.7,0.7,1.4c-0.3,0-0.6,0-0.9,0
		C98,53.4,98.6,53.4,98.4,52.7z M97.4,146.4C97.5,145.8,98.4,146.6,97.4,146.4L97.4,146.4z M95.3,104.9c-0.3,0.6-0.4,1.4-1.2,1.6
		C93.7,105.4,94.2,104.4,95.3,104.9z M93.6,161.6C93.7,160.9,94.6,161.8,93.6,161.6L93.6,161.6z M91.7,53.2c0.5-0.1,0.7,0,0.7,0.5
		c-0.2,0-0.5,0-0.7,0C91.7,53.5,91.7,53.3,91.7,53.2z M92.5,170.1c-0.1,0.3-0.3,0.5-0.7,0.5C91.6,170.1,92.1,170.2,92.5,170.1z
		 M89.6,98.1c0.1,0.3-0.9,0.6-0.2,0.7c-0.5,0.8-0.7-0.6-0.9-0.7C88.5,97.6,89.5,98,89.6,98.1z M87.2,62.2c0.6,0.7-0.1,1.6,0,2.5
		c-1.7,0.1-1.2-2.1-0.7-2.5C86.8,62.2,87,62.2,87.2,62.2z M85.6,27.6c0.4-0.1,0.4,0.2,0.7,0.2C86.4,28.3,85.2,28.2,85.6,27.6z
		 M84.6,42.1C84,41.4,85.4,42.7,84.6,42.1L84.6,42.1z M85.3,58.8c-0.6,0-0.9-0.3-0.9-0.9C85.1,57.8,85.5,58.1,85.3,58.8z M82.7,44.6
		c0.5-0.1,0.7,0,0.7,0.5c-0.2,0-0.5,0-0.7,0C82.7,44.9,82.7,44.7,82.7,44.6z M82.5,48.4c-0.2,1.2-1.3,1.6-2.6,1.8
		C78.8,48.4,81.2,47.3,82.5,48.4z M82.5,104.9c-0.6,0.1-0.9-0.1-0.7-0.7C82.3,104.2,82.5,104.4,82.5,104.9z M79.7,115.5
		c-2.2,0.2-1.1-3.9,0.7-2.5C80.4,114.1,79.5,114.3,79.7,115.5z M79.7,29.2c0.3,0.2,0.9,0.2,0.7,0.9c-0.3,0-0.6,0-0.9,0
		C79.3,29.7,79.6,29.5,79.7,29.2z M79.2,100.1C79.6,99.3,79.9,100.9,79.2,100.1L79.2,100.1z M78,43.4C77.1,44.2,76.8,42.6,78,43.4
		L78,43.4z M79.2,65.4c-0.4,0.6-1.7,1.3-2.6,0.7C76.7,64.9,78.4,64.6,79.2,65.4z M78,97.4c0,0.2,0,0.3,0,0.5c-0.2,0-0.3,0-0.5,0
		c0-0.2,0-0.3,0-0.5C77.7,97.4,77.8,97.4,78,97.4z M67.6,202.2c-0.9,0.1-1.1-0.5-1.2-1.1C67.2,201.1,67.7,201.3,67.6,202.2z
		 M67.1,163.8c-0.4,0.5-1.3,2-0.2,2.5C65.4,167.3,64.4,163.1,67.1,163.8z M62.8,49.8c-0.4,0-0.5-0.3-0.9-0.2
		C61.8,48.2,63.8,48.7,62.8,49.8z M57.1,59.3c-0.8,0.2-0.7-0.4-1.2-0.5C56.1,58.3,57.4,58.6,57.1,59.3z M53.8,139.4
		C53.2,140.2,52.8,138.6,53.8,139.4L53.8,139.4z M53.1,161.6C53.1,160.9,54.1,161.8,53.1,161.6L53.1,161.6z M49.1,76
		c0.2,0,0.3,0,0.5,0c0,0.1,0,0.3,0,0.5c-0.2,0-0.3,0-0.5,0C49.1,76.3,49.1,76.1,49.1,76z M40.5,173.5
		C40.9,172.8,41.1,174.4,40.5,173.5L40.5,173.5z M38.2,177.6c0,0.2,0.1,0.2,0.2,0.2c0,0.2,0,0.3,0,0.5c-0.2,0-0.2,0.1-0.2,0.2
		c-0.2,0-0.3,0-0.5,0c0-0.2-0.1-0.2-0.2-0.2c0-0.2,0-0.3,0-0.5c0.2,0,0.2-0.1,0.2-0.2C37.8,177.6,38,177.6,38.2,177.6z M37.2,112.3
		C37.3,111.7,38.2,112.5,37.2,112.3L37.2,112.3z M37,149.8c1.2-1.2-0.5,1.6,0,0.2C37,150,36.9,149.8,37,149.8z M33.9,81.2
		c0.5,0,0.8,0.2,0.7,0.7C34,82,33.7,81.7,33.9,81.2z M28,115c0.4,0,0.9-0.1,0.9,0.2C29.2,116.1,27.4,115.9,28,115z M25.6,203.3
		C25.9,202.6,26.2,204.2,25.6,203.3L25.6,203.3z M27,134.5c1-0.3,2.4-1.2,3.6-0.7C31.1,136.4,26.9,137.3,27,134.5z M28.2,147.6
		c0.2-0.2,0.5-0.2,0.9-0.2c0.1,0.7-0.3,1.1-0.9,1.1C28.6,148,28.2,148.2,28.2,147.6z M28.7,153.2c0.1-1,0.6-1.5,1.7-1.6
		c-0.1,0.8-0.6,1.4-0.9,2C28.9,153.8,29,153.2,28.7,153.2z M30.1,170.4c-0.4-0.1-0.5-0.4-0.5-0.9C30.3,169.2,30,170,30.1,170.4z
		 M31.7,210.8c-0.4,0-0.8,0-1.2,0c-0.3-0.3-0.3-1.3,0-1.6c0.3,0,0.6,0,0.9,0C31.6,209.7,31.9,210.1,31.7,210.8z M34.4,193.2
		c-0.5,0-0.8-0.2-0.7-0.7c0.2,0,0.5,0,0.7,0C34.4,192.7,34.4,193,34.4,193.2z M34.1,171c0-0.6,0.9-0.5,1.2-0.2
		c-0.1,0.2-0.2,0.4-0.2,0.7C34.4,171.7,34.6,171,34.1,171z M35.3,192.7c-0.2,0-0.3,0-0.5,0c0-0.2,0-0.5,0-0.7
		c0.4-0.1,0.4,0.2,0.7,0.2C35.5,192.5,35.3,192.5,35.3,192.7z M35.3,79.8c0-0.1,0-0.3,0-0.5C36.2,79.4,36,80.3,35.3,79.8z
		 M36.5,172.9C37.5,173.1,36.5,174,36.5,172.9L36.5,172.9z M38.4,184.4c-3.5,0.3-0.9-4.3,0.5-1.6C37.8,182.9,39.1,183,38.4,184.4z
		 M39.3,176c-0.2-0.1-0.4-0.2-0.7-0.2c0-0.2,0.2-0.2,0.2-0.5c0.2,0,0.3,0,0.5,0C39.3,175.6,39.3,175.8,39.3,176z M38.4,69.4
		c0-0.5,0.6-0.5,1.2-0.5C39.7,70,38.8,69.9,38.4,69.4z M40,175.8c0-0.3,0-0.6,0-0.9c0.5-0.1,0.6,0.2,0.9,0.2
		C40.8,175.4,40.8,176,40,175.8z M42.4,151.2c-0.6,0.1-1-0.1-0.9-0.7c0.2,0,0.2-0.1,0.2-0.2C42.3,150.2,42.5,150.6,42.4,151.2z
		 M42.4,115.7c0.9-0.2,0.8,1,0.5,1.4C42.3,116.9,41.9,116.2,42.4,115.7z M43.8,208.5c-0.6,0.1-0.9-0.1-0.7-0.7c0.2,0,0.5,0,0.7,0
		C43.8,208.1,43.8,208.3,43.8,208.5z M43.6,77.3C43.7,76.6,44.6,77.5,43.6,77.3L43.6,77.3z M46.2,119.3
		C45.7,120.1,45.3,118.5,46.2,119.3L46.2,119.3z M46.5,162.9c0.3-0.5,1-1.3,1.7-0.7C47.9,162.8,47.2,163.6,46.5,162.9z M47.9,169.2
		c0-0.2,0-0.3,0-0.5c0.5-0.1,0.7,0,0.7,0.5C48.3,169.2,48.1,169.2,47.9,169.2z M49.1,191.6C49.1,190.9,50,191.8,49.1,191.6
		L49.1,191.6z M49.5,113.2C49.9,112.4,50.3,114,49.5,113.2L49.5,113.2z M50.7,204.5c-1.2,0.2-0.4-1.2,0-0.5
		C50.7,204.2,50.7,204.3,50.7,204.5z M50.5,149.1c0.5,0.1,1.1,0.1,0.9,0.9C50.7,150.1,50.4,149.8,50.5,149.1z M51,61.1
		c-0.2-1.3,1.7-1.8,2.4-0.9C53.3,61.4,51.7,61.7,51,61.1z M52.1,185.3c0.5-0.1,0.9,0,1.2,0.2C53.3,186.2,51.9,186.1,52.1,185.3z
		 M53.1,183.5c-0.1-0.5,0.2-0.6,0.2-0.9C54,182.6,53.9,183.6,53.1,183.5z M54.3,188.9c-0.8-0.1-1-0.5-0.7-1.1
		C54.4,187.9,54.6,188.2,54.3,188.9z M55,125c0.4-0.1,0.4,0.2,0.7,0.2C55.8,125.6,54.6,125.5,55,125z M55.9,171.5
		c-1.9-0.5,0.3-1.2-0.2-2.9c0.5-0.1,1.4-0.4,1.9,0C56.4,168.9,56.9,170.9,55.9,171.5z M56.9,146.7c-0.7,0.2-0.6-0.3-1.2-0.2
		c-0.4-1.3,1.1-1.7,1.9-1.1C57.5,145.9,56.7,145.8,56.9,146.7z M59.5,94.7c-0.7,0.1-0.9-0.3-1.4-0.5c-0.2-0.7,0.2-0.8,0.2-1.4
		c0.6,0,1.1,0,1.7,0C60.6,93.9,59.3,93.6,59.5,94.7z M60.4,127.5c0.5-0.4,0.3,0,0.9,0C61.6,128.3,60.3,128.3,60.4,127.5z
		 M61.4,175.8c-0.8-0.1-0.8-2.3,0.5-1.8C62,174.9,61.1,174.8,61.4,175.8z M61.9,97C61.2,96.3,62.6,97.6,61.9,97L61.9,97z
		 M62.1,130.8C62.8,130,62.9,131.5,62.1,130.8L62.1,130.8z M62.6,69.6c-1.9-0.2-1.2-1.3-0.5-2.3c0.7,0.2,1.7,0.2,1.7,1.1
		C62.9,68.4,62.8,69.1,62.6,69.6z M63.8,99.5c0.2,0.1,0.4,0.2,0.7,0.2c0.1,1-0.4,1.5-1.2,1.1C63.1,100,63.6,99.9,63.8,99.5z
		 M66.1,148.7c0.2,1.4-1.5,1.7-0.7,2.9C62.2,151.7,63.3,147.4,66.1,148.7z M64.2,199.7c1,0.3,1,1.3,0.5,2c-0.4-0.1-0.6-0.3-1-0.5
		C63.9,200.8,64,200.2,64.2,199.7z M67.3,227.1c-1.8,1-1.4,2.5,0.2,3.4C64.4,230.4,63,226.1,67.3,227.1z M66.6,216
		c0.1,1-0.2,2.8,1.4,2.9C66.3,220.2,63.9,216.2,66.6,216z M68,84.3c0.1-1.6,2.4-0.6,1.2,0.5C68.5,85,68.5,84.4,68,84.3z M69.2,174.9
		c0.6,0.1,0.5-0.4,1.2-0.2C70.6,175.9,69.2,176,69.2,174.9z M71.1,117.1c0.7-0.2,0.9,0.2,1.4,0.2c-0.3,0.6-0.4,1.4-1.4,1.4
		C70.8,118.3,70.8,117.4,71.1,117.1z M72.3,127.9c-0.6-0.3-1.4-0.5-1.2-1.6c0.5-0.1,1.2-0.4,1.7,0C72.4,127.1,72.4,127.3,72.3,127.9
		z M73.7,223.4c0-0.2,0-0.3,0-0.5c0.5-0.1,0.7,0,0.7,0.5C74.2,223.4,74,223.4,73.7,223.4z M74.9,140.3
		C75.3,139.5,75.7,141.1,74.9,140.3L74.9,140.3z M77.5,101.5c-0.1,0.6-1.9,0.9-0.9,1.8C74.3,104.2,75.2,99.8,77.5,101.5z
		 M76.1,174.7c0.4-0.1,0.4,0.2,0.7,0.2C76.9,175.3,75.7,175.2,76.1,174.7z M76.8,152.8c-1.5,0.1-0.8-1.9,0.2-1.1
		C77.2,152.3,76.7,152.2,76.8,152.8z M79.9,235.6c0.3,0.1,0.5,0.3,0.5,0.7C79.7,236.4,79.6,236,79.9,235.6z M79.2,178.3
		c-0.1-0.4,1.3-0.4,0.9,0.2C79.6,178.6,79.5,178.3,79.2,178.3z M79.2,160.4c-4.8,0.4,0.2-5.3,1.2-0.7
		C79,158.9,79.5,160.4,79.2,160.4z M78.9,146.4c0.4-0.6,1.4-0.6,1.4-1.6c0.3-0.3,1.1-0.3,1.4,0C81.8,146.1,80.1,147,78.9,146.4z
		 M81.3,223c0.3,0,0.6,0,0.9,0c-1,1.1,0.5,1.9,0.5,3.4C81.1,226.2,81.6,223.9,81.3,223z M82.7,183.7
		C82.7,183.7,82.7,183.7,82.7,183.7c0.1,0,0.1,0,0.2-0.1C82.8,183.7,82.7,183.7,82.7,183.7z M83.4,217.1c-0.3-0.4,0.1-1.4,0.2-2
		c0.9,0,0.7,0.3,1.4,0C84.1,215.3,84.9,217.3,83.4,217.1z M86.1,189.3c-2.2,0.1-1.3-2.9,0.5-1.8C86.3,188,85.9,188.5,86.1,189.3z
		 M87,180.8c0.1-0.5,0.6-0.5,0.9-0.2C87.9,181.1,87.3,181,87,180.8z M88,171.9c-0.2,0-0.3,0-0.5,0c0-0.2,0-0.3,0-0.5
		c0.2,0,0.3,0,0.5,0C88,171.6,88,171.8,88,171.9z M86.5,80.3c0.1-0.9,0.7-1,1.4-0.7C88,80.3,87.1,80.7,86.5,80.3z M88.2,160.9
		c0.3-0.2,0.6-0.3,1.2-0.2c-0.1,0.5-0.6,0.6-0.5,1.4C88.5,161.8,88.1,161.6,88.2,160.9z M89.9,163.8c-0.3,0.3,0,1.2-0.9,0.9
		C88.8,164,89.1,163.7,89.9,163.8z M89.6,243.8C90,243,90.2,244.6,89.6,243.8L89.6,243.8z M89.1,169.5c0-0.8,0.3-0.6,0.9-0.5
		C90.1,169.9,89.7,169.6,89.1,169.5z M90.3,194.1c0.4-0.1,0.4,0.2,0.7,0.2C91.1,194.7,90,194.6,90.3,194.1z M90.8,93.4
		c-0.4,0-0.8,0-1.2,0c0.2-0.8-0.4-1.2,0-1.6c0.6,0,1.1,0,1.4,0.2C91,92.5,90.6,92.7,90.8,93.4z M89.9,46.2c0.5-0.1,0.9,0,1.2,0.2
		C91.1,47,89.4,47.2,89.9,46.2z M90.6,43c0.4-0.1,0.4,0.2,0.7,0.2C91.4,43.7,90.2,43.6,90.6,43z M92.2,216.9
		C92.6,216.1,92.8,217.8,92.2,216.9L92.2,216.9z M91.7,177.1c0.7,0,1.3,0,1.2,0.7C92.5,178.2,91.5,178,91.7,177.1z M92.9,151.4
		c0.4-0.1,0.4,0.2,0.7,0.2C93.7,152.1,92.6,152,92.9,151.4z M94.1,187.8c-0.2,0-0.3,0-0.5,0c0-0.2,0-0.3,0-0.5c0.2,0,0.3,0,0.5,0
		C94.1,187.5,94.1,187.6,94.1,187.8z M94.1,171.7c-0.3-0.2-0.9-0.2-0.7-0.9c0.3,0,0.6,0,0.9,0C94.5,171.3,94.2,171.4,94.1,171.7z
		 M93.6,169.2c0-0.6,0.8-0.1,0.9,0C94.6,169.8,93.8,169.3,93.6,169.2z M95.1,176.5c0.3,0,0.6,0,0.9,0
		C96.2,177.3,94.9,177.3,95.1,176.5z M97.4,158.2c0.5,0,0.8,0.2,0.7,0.7C97.5,159,97.3,158.8,97.4,158.2z M98.2,174
		c-0.2,0-0.3,0-0.5,0c0-0.2-0.1-0.2-0.2-0.2C97.3,173.3,98.5,173.4,98.2,174z M98.4,170.6c-0.7,0.3-0.6-0.4-0.9-0.5
		c0.1-0.3,0.6-0.2,0.9-0.2C98.4,170.1,98.4,170.4,98.4,170.6z M100.8,176c-1.2-0.3-1.4,0.4-1.7,0.9
		C97.2,176.2,100.6,174.2,100.8,176z M101,223.7c-0.6,0.1-0.8-0.3-0.7-0.9C100.6,223,101.2,222.9,101,223.7z M100.8,193.4
		c-1.1-0.1-1.1,0-1.9-0.5c-0.4-1.9,1.4-3.5,2.8-2.3C101.5,191.9,100.2,192.1,100.8,193.4z M102.4,281.5c-0.2,0-0.3,0-0.5,0
		c0-0.2,0-0.3,0-0.5c0.2,0,0.3,0,0.5,0C102.4,281.2,102.4,281.3,102.4,281.5z M101.2,183.2c0.2-0.8,0.4-0.1,1.2-0.2
		C102.5,184,101.6,183.6,101.2,183.2z M102.2,163.4C102.5,162.6,102.8,164.2,102.2,163.4L102.2,163.4z M102.2,157.5
		C102.2,156.8,103.2,157.7,102.2,157.5L102.2,157.5z M103.1,120.2c-0.5,0.1-0.6-0.2-0.9-0.2C102.1,119.6,103.5,119.6,103.1,120.2z
		 M103.4,152.3c0,0.2-0.2,0.2-0.2,0.5c-0.2,0-0.2-0.2-0.5-0.2c0-0.2,0.2-0.2,0.2-0.5C103.1,152.1,103.1,152.3,103.4,152.3z
		 M102.7,159.5c0.3,0,0.6,0,0.9,0c0,0.4,0,0.8,0,1.1C102.7,160.8,102.7,160.2,102.7,159.5z M103.4,166.8
		C104,165.9,103.7,167.5,103.4,166.8L103.4,166.8z M103.1,111.2c-3.6-0.3-0.8-5.2,1.2-2.5C103.6,109.6,102.6,109.7,103.1,111.2z
		 M104.3,33.1c0.2,0,0.3,0,0.5,0c0,0.2,0,0.3,0,0.5c-0.2,0-0.3,0-0.5,0C104.3,33.4,104.3,33.2,104.3,33.1z M107.2,149.4
		c-0.9,0.1-1.2-0.8-0.7-1.4c0.4,0,0.5,0.3,0.9,0.2C107.5,148.8,107,148.7,107.2,149.4z M109.3,162.9
		C110,162.1,110.1,163.6,109.3,162.9L109.3,162.9z M104.8,141c1.3-1.3,4.1-0.6,4.3,1.1c-0.2,0.3-0.8,0.3-1.2,0.5
		c-0.1,1,0.5,1.4,0.7,2c0.9,0.2,1.1-0.3,1.9-0.2c-1.2,0.8-0.1,1.4,0.2,2.5C107.9,146.8,105.7,143,104.8,141z M110.7,64
		C110.8,63.3,111.7,64.2,110.7,64L110.7,64z M112.1,259.1c-0.2,0-0.3,0-0.5,0c0-0.2,0-0.3,0-0.5c0.2,0,0.3,0,0.5,0
		C112.1,258.8,112.1,259,112.1,259.1z M111.7,50.9c-0.1-0.2-0.2-0.4-0.2-0.7c0.2-0.2,0.5-0.2,0.9-0.2
		C112.4,50.6,112.3,51,111.7,50.9z M113.3,62.6c-0.6-0.1-0.1-1.1,0.5-0.9C114,62.4,113.3,62.2,113.3,62.6z M115.7,82.3
		c-0.6,0.1-0.9,0-1.2-0.2C114.5,81.7,116.1,81.6,115.7,82.3z M118.3,88.6C118.7,87.8,119.1,89.4,118.3,88.6L118.3,88.6z M118.1,76.4
		c0.6-0.1,1,0.1,0.9,0.7C118.7,77.4,117.9,77.2,118.1,76.4z M121.4,83c0-0.3,0-0.6,0-0.9c0.5-0.1,0.6,0.2,0.9,0.2
		C122.1,82.6,122.2,83.2,121.4,83z M124,255.1C124,254.4,125,255.3,124,255.1L124,255.1z M121.4,76c-4.1-1.6,2.2-5.2,3.8-1.1
		C123.7,73.4,120.6,73.1,121.4,76z M128.5,77.5c0.5,0,0.8,0.2,0.7,0.7C128.7,78.3,128.5,78,128.5,77.5z M130.6,287.6
		C130.5,287.5,130.8,287.7,130.6,287.6L130.6,287.6z M131.1,269.5C131.2,268.8,132.1,269.7,131.1,269.5L131.1,269.5z M131.1,42.3
		c0.5,0,0.8,0.2,0.7,0.7C131.3,43,131.1,42.8,131.1,42.3z M134.7,20c-0.4,0.6-1.2,0.8-2.1,0.9C132.2,19.3,134.4,18.4,134.7,20z
		 M134,70.5c-0.6-0.1,0.3-0.4,0-0.9c0.3,0,0.6,0,0.9,0C134.9,70.2,134,70,134,70.5z M136.8,249.4
		C136.9,248.7,137.8,249.6,136.8,249.4L136.8,249.4z M137,38.9c0.8-0.4,0.9,0.1,1.9,0C138.5,39.7,137,40.7,137,38.9z M138.2,246.7
		c-0.1-0.4,1.1-0.3,0.7,0.2c-0.2,0-0.3,0-0.5,0C138.5,246.7,138.4,246.7,138.2,246.7z M138.9,287.8c-0.3-0.7,0.4-0.5,0.5-0.9
		C140,287,139.5,288,138.9,287.8z M139.7,286.7c0.1-0.5,0.6-0.5,0.9-0.2C140.5,287,140,287,139.7,286.7z M140.8,36
		c0.7-0.2,0.6,0.3,1.2,0.2C142.2,37.2,140.4,37.1,140.8,36z M142.7,63.5c0-0.2,0-0.5,0-0.7c0.4-0.4,1.1-0.1,1.7,0
		C144.3,63.5,143.2,63.9,142.7,63.5z M144.4,79.4c-2.6-0.4-0.4-4,1.4-2C145.2,78,143.6,78.1,144.4,79.4z M145.3,41.4
		c0.1-0.5,1-0.1,1.2,0C146.2,41.9,145.6,41.9,145.3,41.4z M151.5,275.4C151.7,275.5,151.4,275.3,151.5,275.4L151.5,275.4z
		 M151.5,32.8c-1,0.3-1.2-0.7-0.7-1.1C151.6,31.8,151.8,32.2,151.5,32.8z"/>
	<g>
		<circle fill="#FFFFFF" cx="159.3" cy="115.2" r="17.6"/>
		<path fill="none" stroke="#FFFFFF" stroke-width="2" stroke-linecap="round" stroke-miterlimit="10" d="M125.7,173.8
			c-1.5-43.3,62.1-47.4,67.3-1.5"/>
		<circle fill="#FFFFFF" cx="214.8" cy="132.4" r="11.4"/>
		<path fill="none" stroke="#FFFFFF" stroke-width="2" stroke-linecap="round" stroke-linejoin="round" stroke-miterlimit="10" d="
			M193.1,170.3c-1-28,40.2-30.7,43.6-1L43.9,181.5l72.3,15.8"/>
		<circle fill="#FFFFFF" cx="95.3" cy="125.4" r="15.1"/>
		<path fill="none" stroke="#FFFFFF" stroke-width="2" stroke-linecap="round" stroke-miterlimit="10" d="M66.6,178.1
			c-1.3-36.9,53-43.2,57.5-4"/>
	</g>
</g>
</svg>
